<svg xmlns="http://www.w3.org/2000/svg" viewBox="0 0 448.45 572.53">
    <defs>
        <style>.cls-1{isolation:isolate;}.cls-2{fill:#85a7aa;}.cls-3{font-size:30.9px;font-family:Simplicity;}.cls-4{letter-spacing:0em;}.cls-5{letter-spacing:-0.01em;}.cls-6{letter-spacing:-0.01em;}.cls-7{letter-spacing:0em;}.cls-8{letter-spacing:-0.01em;}.cls-9{letter-spacing:-0.01em;}.cls-10{letter-spacing:-0.01em;}.cls-11{fill:#3f3e3c;}.cls-12,.cls-13,.cls-14{fill:#ff9973;}.cls-12,.cls-14,.cls-22{stroke:#ed714b;}.cls-12,.cls-14,.cls-22,.cls-23{stroke-miterlimit:10;}.cls-12{stroke-width:1.59px;}.cls-13{opacity:0.3;mix-blend-mode:multiply;}.cls-14{stroke-width:1.59px;}.cls-15{fill:#606060;}.cls-16,.cls-22,.cls-23{fill:none;}.cls-16{stroke:#7f3d29;stroke-linejoin:round;stroke-width:1.28px;}.cls-16,.cls-22{stroke-linecap:round;}.cls-17{fill:#0c5a71;}.cls-18{fill:#37212e;}.cls-19{fill:#7f3d29;}.cls-20{opacity:0.43;}.cls-21{fill:#d3d0cd;}.cls-23{stroke:#dfa326;}.cls-24{fill:#dfa326;}.cls-25{fill:#9ec6cc;}</style>
            <filter x="0" y="0" width="1" height="1" id="solid">
                <feFlood flood-color="rgba(255,0,0,0.2)" result="bg" />
                <feMerge>
                    <feMergeNode in="bg"/>
                    <feMergeNode in="SourceGraphic"/>
                </feMerge>
            </filter>
    </defs>
    <g class="cls-1">
        <g id="Layer_2" data-name="Layer 2">
            <g id="Layer_1-2" data-name="Layer 1">
                <path class="cls-2" d="M109.88,372.51s22.65-25.37,51.44-27.63,45.2-17.43,87.28,21.76S109.88,372.51,109.88,372.51Z"/>
                <text filter="url(#solid)" class="cls-3" transform="translate(0 25.87)">B
                    <tspan class="cls-4" x="16.75" y="0">r</tspan>
                    <tspan x="26.98" y="0">ian </tspan>
                    <tspan class="cls-5" x="72.81" y="0">L</tspan>
                    <tspan x="86.96" y="0">ewis</tspan>
                    </text>
                <text filter="url(#solid)" class="cls-3" transform="translate(0 25.87)">
                    <tspan class="cls-6" x="0" y="37.08">C</tspan>
                    <tspan x="17.58" y="37.08">o</tspan>
                    <tspan class="cls-7" x="34.55" y="37.08">n</tspan>
                    <tspan class="cls-8" x="51.58" y="37.08">t</tspan>
                    <tspan x="61.62" y="37.08">e</tspan>
                    <tspan class="cls-7" x="77.1" y="37.08">n</tspan>
                    <tspan x="94.13" y="37.08">t </tspan>
                    <tspan class="cls-6" x="110.91" y="37.08">C</tspan>
                    <tspan x="128.49" y="37.08">oo</tspan>
                    <tspan class="cls-9" x="162.42" y="37.08">r</tspan>
                    <tspan x="172.22" y="37.08">din</tspan>
                    <tspan class="cls-7" x="214.03" y="37.08">a</tspan>
                    <tspan class="cls-10" x="228.8" y="37.08">t</tspan>
                    <tspan x="238.84" y="37.08">or</tspan>
                </text>
                <path class="cls-11" d="M306.11,430.49h0a14.3,14.3,0,0,0-14.1,11.6c-6.26,33-12.67,96.39-11.09,129.56h66c-10.34-46.95-21-106.77-26.87-130.32A14.31,14.31,0,0,0,306.11,430.49Z"/>
                <path class="cls-11" d="M290.06,485.33c5.38-41.11,14-78.63,16.62-81.63s6.52,3.47,9.43,9.82a95.39,95.39,0,0,1,5.6,16.17c2.44,9.59,6.65,56.27,12.85,82.1Z"/>
                <path class="cls-11" d="M51.93,430.49h0a14.31,14.31,0,0,1,14.1,11.6c6.26,33,12.67,96.39,11.09,129.56h-66C21.51,524.7,32.13,464.88,38,441.33A14.32,14.32,0,0,1,51.93,430.49Z"/>
                <path class="cls-11" d="M71.11,485.33c-5.38-41.11-14-78.63-16.62-81.63s-6.52,3.47-9.43,9.82a95.39,95.39,0,0,0-5.6,16.17c-2.44,9.59-5.53,42.66-11.73,68.5Z"/>
                <path class="cls-12" d="M214.87,346.32c-1.85-22.24-5.17-62.21-5.17-62.21H150.18L146,345.31a26.42,26.42,0,0,1-15.14,22.11L55.22,402.85,77.38,563.68H287.06l17.47-157.11-75.48-39A26.34,26.34,0,0,1,214.87,346.32Z"/>
                <path class="cls-13" d="M171.84,350.75C189,354.58,206.43,343,214.5,328.6L210.8,284a1.11,1.11,0,0,0-1.1-1H150.18a1.11,1.11,0,0,0-1.1,1L146,329.84C152.85,338.83,160.55,348.22,171.84,350.75Z"/>
                <path class="cls-11" d="M234.87,364.9s-12,53.3-53.15,53.3c-41.54,0-53.72-54.88-53.72-54.88L52.83,402.88,68.94,572.53H294.11l15.54-169Z"/>
                <path class="cls-14" d="M258,223.39c4.48,1.58,7,6.89,7.52,11.9A46.2,46.2,0,0,1,253,271.39a15.87,15.87,0,0,1-5.29,4.05c-14.53,6.12-9.12-32.34-7.68-38.31C241.58,230.55,248.83,220.15,258,223.39Z"/>
                <path class="cls-14" d="M258,238.15a7.86,7.86,0,0,0-1-2.66,3.13,3.13,0,0,0-2.49-1.48c-1.93,0-3,2-3.53,3.66a47.28,47.28,0,0,0-2,13.49,1.29,1.29,0,0,1,1.67-.21,2.49,2.49,0,0,1,1,1.44c1.38,4.26-1.83,9.27-6.59,10.3"/>
                <path class="cls-14" d="M103.65,223.39c-4.47,1.58-7,6.89-7.52,11.9a46.27,46.27,0,0,0,12.57,36.1,16,16,0,0,0,5.3,4.05c14.52,6.12,9.11-32.34,7.68-38.31C120.09,230.55,112.85,220.15,103.65,223.39Z"/>
                <path class="cls-14" d="M103.68,238.15a7.66,7.66,0,0,1,1-2.66,3.12,3.12,0,0,1,2.48-1.48c1.93,0,3,2,3.53,3.66a46.94,46.94,0,0,1,2,13.49A1.29,1.29,0,0,0,111,251a2.56,2.56,0,0,0-1,1.44c-1.37,4.26,1.83,9.27,6.6,10.3"/>
                <path class="cls-12" d="M113.64,220.47a142.66,142.66,0,0,1,5.1-30.16c4.34-15.16,14.21-29.17,29.43-36.92,16.8-8.56,37.12-10.23,55.43-6.54,13.52,2.72,26.44,9.57,34.36,20.23,8.43,11.35,9.27,28.5,10.49,41.91a162.74,162.74,0,0,1-5.38,59.09c-4.43,15.65-11.84,31.21-23.72,43.33-9.36,9.55-22,16.75-36.06,17.12a44.89,44.89,0,0,1-6.66-.32c-15.58-1.87-28.44-11.42-37.7-22.58-13.84-16.68-21.84-38-24.54-59.08A138.33,138.33,0,0,1,113.64,220.47Z"/>
                <path class="cls-15" d="M259.09,207.94c0-9.63-.95-33.44-3.92-42.73-5.12-16-16.6-30.35-31.81-39.75-13.28-8.21-27.65-11.32-42.71-11.11-15.06-.21-29.43,2.9-42.71,11.11-15.21,9.4-26.68,23.72-31.81,39.75-3,9.29-3.9,33.1-3.92,42.73,0,4.89.26,9.76.49,14.64,0-.07.3,0,.71.15,2-.77,4.07-1.12,5.86,0,2.88.78,3.57,4.46,3.8,7.76.46,2.12.3,4.75.5,6.71l.87,8.7q2.9-14.7,5.77-29.39c1.74-9,1.26-18.16,3.18-27.12,1.11-5.19,2.25-10.46,5-15.12s7.35-8.71,13.08-9.7c7.83-1.37,15.25,3,22.58,5.89a46,46,0,0,0,33.24,0c7.34-2.84,14.76-7.26,22.59-5.89,5.72,1,10.34,5,13.07,9.7s3.88,9.93,5,15.12c1.7,8,1.78,16.28,2.67,24.34,1.26,11.48,3.83,22.91,5.78,34.31q1-7.43,2-14.85c.32-2.47.69-5,2.27-7.08a6.63,6.63,0,0,1,5.1-2.52c2.38,0,2.4,1.07,3.06-1.19C260,218.28,259.1,212.27,259.09,207.94Z"/>
                <path class="cls-16" d="M182,273.9c-2.89-1-6-2.1-7.63-4.65-1.53-2.39-1.32-5.44-1.07-8.25q1.47-16.09,2.95-32.17"/>
                <path class="cls-17" d="M148.13,244.57c-7.52-.82-6.24-12.27,1.29-11.46s6.25,12.27-1.29,11.46Z"/>
                <path class="cls-18" d="M126.9,221.93a30.38,30.38,0,0,1,3.24-1c1.08-.29,2.12-.67,3.18-1s2.22-.63,3.35-.87c.53-.12,1.06-.22,1.6-.31s1-.16,1.41-.21a37,37,0,0,1,6.82-.15l1.62.15c.53.06.76.09,1.42.2,1.14.19,2.27.43,3.38.73a35.63,35.63,0,0,1,3.66,1.21l.59.23.83.37a3.72,3.72,0,0,0,2.66.59,1.64,1.64,0,0,0,1.14-2,2.87,2.87,0,0,0-1.63-1.68c-.64-.3-1.28-.58-1.93-.85-1.1-.45-2.21-.85-3.35-1.19a39.07,39.07,0,0,0-7.27-1.4,37.59,37.59,0,0,0-14.31,1.3,18.76,18.76,0,0,0-3.94,1.51,40.4,40.4,0,0,0-3.35,2.29,1.16,1.16,0,0,0-.46,1.43,1.13,1.13,0,0,0,1.34.66Z"/>
                <path class="cls-17" d="M211.27,244.57c7.53-.82,6.25-12.27-1.29-11.46s-6.24,12.27,1.29,11.46Z"/>
                <path class="cls-18" d="M233.38,219.84c-1-.7-1.88-1.42-2.91-2a16.91,16.91,0,0,0-3.5-1.49,36.52,36.52,0,0,0-7.25-1.52,38.28,38.28,0,0,0-14.33,1.09,35.83,35.83,0,0,0-3.75,1.25c-.72.29-1.43.59-2.13.91-.27.13-.56.25-.82.4a2.48,2.48,0,0,0-1.09,1.41,1.66,1.66,0,0,0,1.15,2,3.14,3.14,0,0,0,2.29-.41l.73-.34.37-.17c.61-.26-.31.12.31-.12,1-.41,2.08-.79,3.16-1.11s2.22-.6,3.35-.82c.54-.1,1.07-.19,1.61-.27,0,0,.45-.06.25,0l.26,0,.91-.1a37.89,37.89,0,0,1,6.82,0,28.21,28.21,0,0,1,3,.42c1.14.22,2.25.49,3.37.8s2.43.83,3.67,1.15a30.26,30.26,0,0,1,3.62,1.11,1.14,1.14,0,0,0,.88-2.09Z"/>
                <path class="cls-19" d="M166.34,294.29a40.86,40.86,0,0,0,4.8,2.22,21.74,21.74,0,0,0,5.35,1.15,31,31,0,0,0,10.68-.68,24.21,24.21,0,0,0,5.83-2.11c.94-.52.29-2.21-.75-1.78a38.77,38.77,0,0,1-6.12,2.1,29,29,0,0,1-6.5.73,36.05,36.05,0,0,1-12.78-2.5c-.58-.25-1.09.55-.51.87Z"/>
                <path class="cls-15" d="M103.73,181.21s13.34,13.53,18.85,13.1,13.84-30.54,47.85-21.86,50.78-15.91,58.16-3.44,11.16,35,11.16,35,19.42,1.14,19.16-4.79,12.43-80.41-72.54-84.85S103.73,181.21,103.73,181.21Z"/>
                <path class="cls-11" d="M123.85,196s3.52-11.09,11.39-15.47,19.91-11.08,35.19-8.08c39.85,7.81,64.66-5.57,64.46-19.85s-28-43.07-52.89-42-67.67,3.2-79.79,64.53C102.21,175.12,110.7,201.41,123.85,196Z"/>
                <g class="cls-20">
                    <path class="cls-21" d="M182,170a73.21,73.21,0,0,0,12.46,1.57,36.91,36.91,0,0,0,12.33-1.33,14.39,14.39,0,0,0,5.28-2.89,9.84,9.84,0,0,0,3-5.06l.26-1.49.08-1.53c0-1,0-2.1-.08-3.15a50.35,50.35,0,0,0-.69-6.26,29.67,29.67,0,0,0-4.43-11.66,22.15,22.15,0,0,0-9.57-7.89,35.77,35.77,0,0,0-12.32-2.69,69.21,69.21,0,0,0-12.7.58,70.17,70.17,0,0,1,12.71-.83,36.32,36.32,0,0,1,12.51,2.48,22.88,22.88,0,0,1,10,7.92,30.9,30.9,0,0,1,4.8,11.9,55.13,55.13,0,0,1,.83,6.38c.07,1.08.12,2.14.14,3.22l-.06,1.66-.25,1.65a11.18,11.18,0,0,1-3.3,5.78,15.93,15.93,0,0,1-5.74,3.31,38.56,38.56,0,0,1-12.86,1.65,74.14,74.14,0,0,1-12.84-1.37Z"/>
                </g>
                <g class="cls-20">
                    <path class="cls-21" d="M165.65,169.16a107.47,107.47,0,0,0,11.2,1.09,65.44,65.44,0,0,0,11.21-.38,27.08,27.08,0,0,0,5.39-1.25,10.26,10.26,0,0,0,4.44-2.83,5.77,5.77,0,0,0,.68-1.08l.27-.58.16-.62a8.71,8.71,0,0,0,.11-2.67c0-.46,0-.93-.08-1.39l-.2-1.38a20.73,20.73,0,0,0-.58-2.71,16.89,16.89,0,0,0-6.11-9,27,27,0,0,0-10.2-4.49c-7.37-1.61-15.05-1.56-22.59-.92,7.53-.8,15.2-1,22.7.44a27.38,27.38,0,0,1,10.54,4.37,17.82,17.82,0,0,1,6.62,9.33,23.1,23.1,0,0,1,.67,2.82l.23,1.44c.06.48.08,1,.12,1.44a9.73,9.73,0,0,1-.07,3l-.18.76-.31.72a6.91,6.91,0,0,1-.8,1.33,11.51,11.51,0,0,1-4.94,3.34,28.06,28.06,0,0,1-5.65,1.44,65,65,0,0,1-11.48.64,107.35,107.35,0,0,1-11.45-.85Z"/>
                </g>
                <g class="cls-20">
                    <path class="cls-21" d="M154.73,169.56a85.47,85.47,0,0,0,16.3.62,30.91,30.91,0,0,0,4-.57,11.23,11.23,0,0,0,3.63-1.36,3,3,0,0,0,1.57-2.92,12.76,12.76,0,0,0-.74-3.87,11.2,11.2,0,0,0-5.36-5.63,25.41,25.41,0,0,0-7.77-2.38,73.53,73.53,0,0,0-16.45-.53,74.89,74.89,0,0,1,16.53,0,26.09,26.09,0,0,1,8,2.21,12,12,0,0,1,5.94,5.93,13.15,13.15,0,0,1,.94,4.18,5.65,5.65,0,0,1,0,1.16,4.24,4.24,0,0,1-.4,1.15,4.91,4.91,0,0,1-1.58,1.71,12.46,12.46,0,0,1-4,1.66,31.35,31.35,0,0,1-4.17.72,87.68,87.68,0,0,1-16.68-.12Z"/>
                </g>
                <line class="cls-22" x1="217.98" y1="239.91" x2="224.03" y2="235.81"/>
                <line class="cls-22" x1="217.98" y1="242.51" x2="224.03" y2="246.66"/>
                <line class="cls-22" x1="142.5" y1="239.42" x2="136.45" y2="235.31"/>
                <line class="cls-22" x1="142.5" y1="242.01" x2="136.45" y2="246.17"/>
                <path class="cls-23" d="M12.17,83.9s-34.95,89.9,36.76,122.51"/>
                <polygon class="cls-24" points="44.18 208.6 43.89 207.65 48.61 206.21 46.83 201.61 47.77 201.25 49.93 206.86 44.18 208.6"/>
                <g class="cls-20">
                    <path class="cls-21" d="M228.54,168c3.44-.23,7.19-1.78,9-4.85a10.52,10.52,0,0,0,1.4-5.14,20.79,20.79,0,0,0-.66-5.52c-.44-1.82-1.11-3.6-1.72-5.42l-1.86-5.42-3.73-10.85,4.2,10.67,2.09,5.34c.69,1.78,1.45,3.54,2,5.42a21.65,21.65,0,0,1,1,5.8,11.91,11.91,0,0,1-1.34,5.86,10.73,10.73,0,0,1-4.34,4.29,15.05,15.05,0,0,1-5.83,1.81Z"/>
                </g>
                <g class="cls-20">
                    <path class="cls-21" d="M239.5,180c3.44-.23,7.18-1.78,9-4.85a10.48,10.48,0,0,0,1.4-5.13,20.76,20.76,0,0,0-.67-5.52c-.43-1.82-1.1-3.61-1.72-5.42l-1.86-5.43-3.72-10.84,4.19,10.67,2.1,5.34c.68,1.77,1.44,3.54,2,5.42a22,22,0,0,1,1,5.79,11.87,11.87,0,0,1-1.35,5.86,10.73,10.73,0,0,1-4.33,4.3,15.27,15.27,0,0,1-5.84,1.81Z"/>
                </g>
                <polygon class="cls-25" points="126.7 359.15 179.72 410.49 229.02 351.49 265.77 380.88 221.69 394.69 219.55 431.55 181.85 418.15 137.91 431.55 140.76 395.47 88.41 383.87 116.66 365.63 126.7 359.15"/>
            </g>
        </g>
    </g>
</svg>