<svg xmlns="http://www.w3.org/2000/svg" viewBox="0 0 381.47 499.32"><defs><style>.cls-1{isolation:isolate;}.cls-2{fill:#c7c9c9;}.cls-3,.cls-5,.cls-6{fill:#ff9973;}.cls-3,.cls-6{stroke:#ed714b;stroke-miterlimit:10;}.cls-3{stroke-width:1.59px;}.cls-4{fill:#3f3e3c;}.cls-5{opacity:0.3;mix-blend-mode:multiply;}.cls-6{stroke-width:1.59px;}.cls-13,.cls-7{fill:#39222f;}.cls-8{fill:none;stroke:#7f3d29;stroke-linecap:round;stroke-linejoin:round;stroke-width:1.28px;}.cls-9{fill:#0c5a71;}.cls-10{fill:#37212e;}.cls-11{fill:#7f3d29;}.cls-12{fill:#e8e8e8;}.cls-13{opacity:0.17;}</style></defs><g class="cls-1"><g id="Layer_2" data-name="Layer 2"><g id="Layer_1-2" data-name="Layer 1"><path class="cls-2" d="M111.72,275.76s25.74-28.83,58.45-31.39,51.37-19.8,99.19,24.73S111.72,275.76,111.72,275.76Z"/><path class="cls-3" d="M228.19,247.5c-2.1-25.28-5.87-70.7-5.87-70.7H154.69L150,246.35a30,30,0,0,1-17.2,25.13l-86,40.26L72,494.49H310.22L330.08,316,244.3,271.61A29.92,29.92,0,0,1,228.19,247.5Z"/><path class="cls-4" d="M335.15,337.92h0a16.24,16.24,0,0,0-16,13.18c-7.12,37.5-14.4,109.54-12.61,147.23h75C369.72,445,357.65,377,351,350.23A16.27,16.27,0,0,0,335.15,337.92Z"/><path class="cls-4" d="M316.9,400.24c6.12-46.71,15.87-89.35,18.89-92.76s7.41,3.94,10.72,11.16A108.8,108.8,0,0,1,352.88,337c2.77,10.89,7.56,63.94,14.59,93.29Z"/><path class="cls-4" d="M46.32,337.92h0a16.26,16.26,0,0,1,16,13.18c7.11,37.5,14.4,109.54,12.6,147.23H0C11.75,445,23.82,377,30.52,350.23A16.28,16.28,0,0,1,46.32,337.92Z"/><path class="cls-4" d="M68.11,400.24C62,353.53,52.25,310.89,49.23,307.48s-7.41,3.94-10.72,11.16A108.8,108.8,0,0,0,32.14,337c-2.77,10.89-6.28,48.47-13.32,77.83Z"/><path class="cls-4" d="M254.2,263.39S240.53,324,193.8,324c-47.2,0-61.05-62.36-61.05-62.36L47.34,306.55,65.65,499.32H321.52l17.65-192Z"/><path class="cls-5" d="M179.29,252.53c19.46,4.35,39.31-8.77,48.49-25.16l-4.21-50.67a1.26,1.26,0,0,0-1.25-1.15H154.69a1.25,1.25,0,0,0-1.25,1.17l-3.54,52.05C157.72,239,166.46,249.66,179.29,252.53Z"/><path class="cls-6" d="M266.31,123.43c4.49,1.75,7,7.64,7.55,13.19a54.61,54.61,0,0,1-12.62,40,16.42,16.42,0,0,1-5.33,4.49c-14.59,6.78-9.15-35.86-7.71-42.47C249.79,131.36,257.07,119.84,266.31,123.43Z"/><path class="cls-6" d="M266.28,139.79a9.38,9.38,0,0,0-1-2.95,3.16,3.16,0,0,0-2.5-1.64c-1.94,0-3,2.19-3.54,4.06a56.82,56.82,0,0,0-2.06,15,1.21,1.21,0,0,1,1.68-.23,2.83,2.83,0,0,1,1,1.59A9.48,9.48,0,0,1,253.24,167"/><path class="cls-6" d="M111.22,123.43c-4.5,1.75-7,7.64-7.55,13.19a54.61,54.61,0,0,0,12.62,40,16.49,16.49,0,0,0,5.32,4.49c14.6,6.78,9.16-35.86,7.72-42.47C127.74,131.36,120.46,119.84,111.22,123.43Z"/><path class="cls-6" d="M111.25,139.79a9.13,9.13,0,0,1,1-2.95,3.15,3.15,0,0,1,2.5-1.64c1.93,0,3,2.19,3.54,4.06a56.82,56.82,0,0,1,2.06,15,1.21,1.21,0,0,0-1.68-.23,2.83,2.83,0,0,0-1,1.59A9.48,9.48,0,0,0,124.29,167"/><path class="cls-3" d="M121.25,120.19a173.82,173.82,0,0,1,5.13-33.43c4.36-16.81,14.28-32.34,29.56-40.93,16.88-9.49,37.3-11.34,55.7-7.25,13.57,3,26.56,10.61,34.51,22.42,8.47,12.58,9.31,31.6,10.54,46.47a198.43,198.43,0,0,1-5.4,65.5c-4.46,17.35-11.9,34.6-23.83,48-9.41,10.59-22.07,18.57-36.23,19a42.67,42.67,0,0,1-6.69-.35c-15.65-2.08-28.57-12.66-37.88-25-13.91-18.5-21.94-42.15-24.65-65.5A168.85,168.85,0,0,1,121.25,120.19Z"/><path class="cls-7" d="M267.38,106.31c0-10.69-1-37.08-3.94-47.37a81.18,81.18,0,0,0-32-44.07c-13.34-9.1-27.77-12.55-42.9-12.31C173.45,2.32,159,5.77,145.67,14.87a81.28,81.28,0,0,0-32,44.07c-3,10.29-3.92,36.68-3.94,47.37,0,5.41.26,10.81.5,16.22,0-.08.3,0,.71.17,2-.86,4.08-1.24,5.88,0,2.9.87,3.59,5,3.82,8.61.47,2.34.3,5.26.5,7.43q.45,4.83.88,9.64,2.89-16.29,5.79-32.57c1.76-9.94,1.27-20.14,3.2-30.07,1.11-5.75,2.26-11.59,5-16.76s7.38-9.65,13.13-10.76c7.87-1.51,15.32,3.39,22.69,6.53a42.14,42.14,0,0,0,33.4,0c7.36-3.14,14.82-8,22.69-6.53,5.74,1.11,10.38,5.6,13.13,10.76s3.89,11,5,16.76c1.71,8.83,1.79,18,2.68,27,1.27,12.72,3.85,25.39,5.81,38q1-8.24,2-16.47c.33-2.73.71-5.59,2.29-7.84a6.49,6.49,0,0,1,5.12-2.8c2.39,0,2.41,1.19,3.08-1.32C268.28,117.77,267.39,111.1,267.38,106.31Z"/><path class="cls-8" d="M190.12,179.42c-3.14-1.07-6.53-2.33-8.29-5.15-1.65-2.66-1.43-6-1.15-9.15q1.59-17.84,3.19-35.67"/><path class="cls-9" d="M153.36,146.9c-8.17-.9-6.78-13.6,1.4-12.69s6.78,13.6-1.4,12.69Z"/><path class="cls-10" d="M130.57,121.57a29.9,29.9,0,0,1,3.32-1.08c1.21-.35,2.37-.79,3.57-1.16s2.34-.67,3.53-.93,2.43-.46,3.32-.56a37,37,0,0,1,14.32,1.06,37.81,37.81,0,0,1,3.85,1.29c.59.23,1,.41,1.7.74l.91.45a2.63,2.63,0,0,0,1.83.19,1.65,1.65,0,0,0,1-2.4,3.12,3.12,0,0,0-1.74-1.43c-.7-.33-1.41-.64-2.12-.93a35.79,35.79,0,0,0-3.64-1.3,41.56,41.56,0,0,0-7.67-1.47,39.77,39.77,0,0,0-15.49,1.46,20.34,20.34,0,0,0-4.21,1.65,40.31,40.31,0,0,0-3.62,2.45,1.14,1.14,0,0,0,1.16,2Z"/><path class="cls-9" d="M221.89,146.9c8.17-.9,6.78-13.6-1.4-12.69s-6.78,13.6,1.4,12.69Z"/><path class="cls-10" d="M245.83,119.6c-1-.76-2.06-1.54-3.17-2.2a20,20,0,0,0-3.78-1.62,39,39,0,0,0-7.63-1.65,40.82,40.82,0,0,0-15.52,1.13,37.75,37.75,0,0,0-4,1.36c-.75.29-1.49.61-2.22.95a3.66,3.66,0,0,0-2.11,1.6,1.65,1.65,0,0,0,1,2.4,2.62,2.62,0,0,0,1.52,0c.32-.13.63-.31,1-.46l.74-.35.46-.2c.06,0,.42-.18.21-.1a37.05,37.05,0,0,1,3.53-1.26c1.17-.35,2.36-.65,3.55-.88.57-.12,1.14-.22,1.7-.3l.41-.06.21,0,1-.11a39,39,0,0,1,7.41,0l.81.08.41,0c.65.07-.17,0,.2,0,.64.09,1.28.2,1.91.32,1.2.23,2.38.52,3.56.85s2.55.9,3.85,1.26a30.65,30.65,0,0,1,3.91,1.24,1.14,1.14,0,0,0,1.15-2Z"/><path class="cls-11" d="M173.14,202a39.65,39.65,0,0,0,5.25,2.44,24.88,24.88,0,0,0,5.72,1.25,33,33,0,0,0,11.63-.77,25.83,25.83,0,0,0,6.27-2.32,1,1,0,0,0-1-1.68,41.39,41.39,0,0,1-5.11,1.91,29.75,29.75,0,0,1-5.36,1,33.16,33.16,0,0,1-10.92-.8c-1-.23-2-.39-2.93-.7a30.66,30.66,0,0,1-3.06-1.18c-.58-.26-1.08.54-.51.86Z"/><polygon class="cls-12" points="131.59 259.7 191.82 318.04 247.85 251 289.61 284.4 239.51 300.1 237.09 341.97 194.25 326.75 144.32 341.97 147.56 300.98 84.48 287 120.17 267.08 131.59 259.7"/><circle class="cls-7" cx="124.29" cy="64.45" r="15.12"/><circle class="cls-7" cx="147.89" cy="21.83" r="15.12"/><circle class="cls-7" cx="129.99" cy="34.2" r="15.12"/><circle class="cls-7" cx="124.29" cy="45.37" r="15.12"/><circle class="cls-7" cx="154.06" cy="15.12" r="15.12"/><circle class="cls-7" cx="169.18" cy="15.12" r="15.12"/><circle class="cls-7" cx="142.09" cy="21.83" r="15.12"/><path class="cls-13" d="M130,179.42a316.66,316.66,0,0,0,57.49,10.09c17,1.25,58.53-4.6,58.53-4.6s-14.26,49.55-39.83,51.78S151.73,243.54,130,179.42Z"/></g></g></g></svg>