<svg xmlns="http://www.w3.org/2000/svg" viewBox="0 0 421.6 523.2"><defs><style>.cls-1{isolation:isolate;}.cls-2{fill:#c7c9c9;}.cls-3,.cls-5{fill:#ff9973;}.cls-3{stroke:#ed714b;}.cls-3,.cls-7,.cls-8{stroke-miterlimit:10;}.cls-3,.cls-8{stroke-width:1.59px;}.cls-4{fill:#3f3e3c;}.cls-5{opacity:0.3;mix-blend-mode:multiply;}.cls-6{fill:#e8e8e8;}.cls-7,.cls-8{fill:#f69674;stroke:#ec714b;}.cls-7{stroke-width:1.59px;}.cls-9{fill:#524639;}.cls-10{fill:none;stroke:#803e28;stroke-linecap:round;stroke-linejoin:round;stroke-width:1.28px;}.cls-11{fill:#3f2e1e;}.cls-12{fill:#803e28;}</style></defs><g class="cls-1"><g id="Layer_2" data-name="Layer 2"><g id="Layer_1-2" data-name="Layer 1"><path class="cls-2" d="M123.47,276.12s28.45-31.86,64.6-34.69,56.78-21.89,109.62,27.33S123.47,276.12,123.47,276.12Z"/><path class="cls-3" d="M257.17,241.64c-2.19-27.93,0-33.27,0-33.27H156.54v34.55c-.77,12,3.75,23.35-6.6,28.46l-90.06,44.5,26.38,202H335.82l20.79-197.31-89.84-49C257.17,266.29,258.07,253,257.17,241.64Z"/><path class="cls-4" d="M370.41,344.82h0a18,18,0,0,0-17.71,14.57c-7.86,41.44-15.91,121.05-13.93,162.71H421.6c-13-59-26.32-134.09-33.74-163.67A18,18,0,0,0,370.41,344.82Z"/><path class="cls-4" d="M350.24,413.69c6.76-51.62,17.54-98.75,20.87-102.52s8.19,4.36,11.85,12.34a120.69,120.69,0,0,1,7,20.31c3.06,12,8.35,70.66,16.13,103.1Z"/><path class="cls-4" d="M51.19,344.82h0a18,18,0,0,1,17.71,14.57c7.86,41.44,15.91,121.05,13.93,162.71H0c13-59,26.32-134.09,33.73-163.67A18,18,0,0,1,51.19,344.82Z"/><path class="cls-4" d="M75.28,413.69c-6.76-51.62-17.54-98.75-20.88-102.52s-8.18,4.36-11.84,12.34a120.69,120.69,0,0,0-7,20.31c-3.06,12-6.94,53.57-14.72,86Z"/><path class="cls-4" d="M280.94,262.45s-15.11,66.93-66.75,66.94c-52.17,0-67.47-68.92-67.47-68.92l-94.4,49.68L72.55,523.2H355.34L374.85,311Z"/><path class="cls-5" d="M198.15,256.71c21.5,4.81,51-5.59,61.11-23.7L264,171.29c-.06-.72-17.58.34-18.3.34H171c-.73,0-22.21-5.32-22.26-4.6l5,60.24C162.33,238.56,184,253.53,198.15,256.71Z"/><polygon class="cls-6" points="145.43 258.38 212 322.85 273.92 248.76 320.07 285.67 264.71 303.02 262.03 349.3 214.69 332.47 159.51 349.3 163.08 303.99 93.37 288.54 132.81 266.52 145.43 258.38"/><path class="cls-7" d="M309.49,122.79c5.81,1.77,9.07,7.76,9.75,13.39C321,150.71,315,165.72,303,176.83a20.84,20.84,0,0,1-6.87,4.56c-18.82,6.89-11.81-36.42-9.95-43.13C288.19,130.84,297.58,119.14,309.49,122.79Z"/><path class="cls-7" d="M309.46,139.4a8.1,8.1,0,0,0-1.24-3,4.25,4.25,0,0,0-3.22-1.66c-2.5,0-3.9,2.22-4.57,4.12a46.48,46.48,0,0,0-2.66,15.19,1.86,1.86,0,0,1,2.17-.23,2.83,2.83,0,0,1,1.25,1.61c1.78,4.8-2.37,10.44-8.54,11.6"/><path class="cls-7" d="M109.48,122.79c-5.8,1.77-9.07,7.76-9.74,13.39C98,150.71,104,165.72,116,176.83a20.9,20.9,0,0,0,6.86,4.56c18.82,6.89,11.81-36.42,10-43.13C130.78,130.84,121.39,119.14,109.48,122.79Z"/><path class="cls-7" d="M109.51,139.4a8.1,8.1,0,0,1,1.24-3,4.25,4.25,0,0,1,3.22-1.66c2.5,0,3.91,2.22,4.58,4.12a46.47,46.47,0,0,1,2.65,15.19,1.84,1.84,0,0,0-2.16-.23,2.8,2.8,0,0,0-1.26,1.61c-1.78,4.8,2.37,10.44,8.55,11.6"/><path class="cls-8" d="M122.42,119.49A141.51,141.51,0,0,1,129,85.54,69.07,69.07,0,0,1,167.16,44c21.77-9.64,48.1-11.52,71.83-7.36,17.51,3.06,34.26,10.77,44.51,22.77,10.92,12.78,12,32.1,13.6,47.2a160.44,160.44,0,0,1-7,66.54c-5.74,17.62-15.34,35.14-30.73,48.78-12.13,10.75-28.45,18.86-46.73,19.27a67,67,0,0,1-8.62-.35c-20.19-2.12-36.85-12.86-48.85-25.42-17.94-18.79-28.3-42.81-31.8-66.54A134.94,134.94,0,0,1,122.42,119.49Z"/><path class="cls-9" d="M310.88,105.39c0-10.85-1.23-37.65-5.08-48.11-6.63-18.05-21.51-34.18-41.22-44.76C247.38,3.27,228.76-.23,209.25,0c-19.52-.24-38.13,3.26-55.34,12.51C134.2,23.1,119.33,39.23,112.69,57.28c-3.84,10.46-5,37.26-5.08,48.11,0,5.5.34,11,.64,16.48,0-.08.39,0,.91.17,2.57-.87,5.28-1.26,7.59,0,3.74.88,4.63,5,4.93,8.75.6,2.37.39,5.34.65,7.55q.56,4.89,1.13,9.79,3.74-16.54,7.47-33.09c2.26-10.09,1.64-20.45,4.12-30.54,1.44-5.83,2.92-11.77,6.46-17a25.35,25.35,0,0,1,16.94-10.93c10.14-1.54,19.76,3.44,29.26,6.64a68.09,68.09,0,0,0,43.07,0c9.5-3.2,19.12-8.18,29.27-6.64A25.4,25.4,0,0,1,277,67.52c3.54,5.25,5,11.19,6.45,17,2.21,9,2.32,18.34,3.47,27.41,1.63,12.92,5,25.79,7.49,38.63q1.28-8.36,2.54-16.72c.43-2.78.91-5.68,2.95-8a9.14,9.14,0,0,1,6.6-2.84c3.09,0,3.12,1.21,4-1.34C312,117,310.89,110.26,310.88,105.39Z"/><path class="cls-10" d="M210.8,179.65c-3.5-1.09-7.28-2.36-9.23-5.23-1.85-2.7-1.6-6.12-1.29-9.29q1.78-18.12,3.56-36.23"/><path class="cls-11" d="M169.86,146.62c-9.1-.91-7.55-13.81,1.56-12.89s7.55,13.81-1.56,12.89Z"/><path class="cls-9" d="M144.14,121a35.73,35.73,0,0,1,3.81-1.18c1.3-.36,2.58-.78,3.88-1.15s2.71-.71,4.08-1,2.46-.42,3.75-.55a50,50,0,0,1,8.21-.15c.65,0,1.3.09,1.95.16l1,.12h.09l.71.11c1.38.21,2.76.49,4.11.83a43.26,43.26,0,0,1,4.29,1.31l2.09.77c.46.17.47.19.85.35a3.11,3.11,0,0,0,1.93.22,1.65,1.65,0,0,0,1-2.4A3.78,3.78,0,0,0,184,117c-.76-.36-1.53-.7-2.32-1q-1.95-.73-4-1.29a49.13,49.13,0,0,0-8.68-1.51,47.93,47.93,0,0,0-17,1.55,24.77,24.77,0,0,0-4.65,1.66c-1.44.75-2.76,1.63-4.11,2.51a1.16,1.16,0,0,0-.47,1.43,1.14,1.14,0,0,0,1.35.66Z"/><path class="cls-11" d="M246.18,146.62c9.09-.91,7.55-13.81-1.56-12.89s-7.55,13.81,1.56,12.89Z"/><path class="cls-9" d="M272.78,118.91c-1.18-.77-2.34-1.56-3.59-2.23a22.28,22.28,0,0,0-4.1-1.62,48.85,48.85,0,0,0-25.64-.64,45.42,45.42,0,0,0-4.48,1.36c-.86.31-1.7.65-2.53,1a4.44,4.44,0,0,0-2.29,1.65,1.65,1.65,0,0,0,1,2.4,3,3,0,0,0,1.48,0c.24-.08.48-.21.72-.31s-.4.14.2-.09l1.9-.7q1.9-.72,3.87-1.26c1.34-.37,2.71-.68,4.08-.92a35.09,35.09,0,0,1,3.76-.5,51.15,51.15,0,0,1,8.21,0,44,44,0,0,1,7.87,1.35c1.44.37,2.84.89,4.28,1.26a37.21,37.21,0,0,1,4.4,1.34c1.26.49,1.9-1.41.88-2.09Z"/><path class="cls-12" d="M191.92,202.56a46.27,46.27,0,0,0,5.9,2.48,28.8,28.8,0,0,0,6.31,1.25A39.73,39.73,0,0,0,217,205.5a30.42,30.42,0,0,0,7-2.34c1-.49.28-2.19-.75-1.78a53.81,53.81,0,0,1-5.81,2,37.4,37.4,0,0,1-6,1,40.74,40.74,0,0,1-12.41-.83c-1.12-.26-2.26-.43-3.36-.76a34.27,34.27,0,0,1-3.31-1.19c-.53-.22-.89.66-.39.92Z"/></g></g></g></svg>