<svg xmlns="http://www.w3.org/2000/svg" viewBox="0 0 380.09 520.58"><defs><style>.cls-1,.cls-11{fill:#4c3322;}.cls-2{fill:#63422b;}.cls-3{fill:#413944;}.cls-11,.cls-3,.cls-4,.cls-5,.cls-7{fill-rule:evenodd;}.cls-4{fill:#352c38;}.cls-10,.cls-5,.cls-8{fill:#ff9973;}.cls-10,.cls-12,.cls-15,.cls-5,.cls-8,.cls-9{stroke:#ed714b;}.cls-10,.cls-12,.cls-14,.cls-15,.cls-5,.cls-8{stroke-miterlimit:10;}.cls-10,.cls-15,.cls-5{stroke-width:1.59px;}.cls-6{fill:#ed714b;}.cls-7{fill:#f3f3f3;}.cls-12,.cls-8,.cls-9{stroke-width:1.59px;}.cls-12,.cls-14,.cls-15,.cls-9{fill:none;stroke-linecap:round;}.cls-9{stroke-linejoin:round;}.cls-13{fill:#4d1f0d;}.cls-14{stroke:#4d1f0d;stroke-width:1.28px;}</style></defs><g id="Layer_2" data-name="Layer 2"><g id="Layer_1-2" data-name="Layer 1"><path class="cls-1" d="M178.86,0h13.2a92.87,92.87,0,0,1,92.87,92.87V279.19a68.37,68.37,0,0,1-68.37,68.37h-62.2A68.37,68.37,0,0,1,86,279.19V92.87A92.87,92.87,0,0,1,178.86,0Z"/><path class="cls-2" d="M107.69,226.52s1.75,79,0,80.71,33.12-28.81,32-75.89-13.31-78.08-13.31-78.08S109.44,127.38,107.69,226.52Z"/><path class="cls-2" d="M143.07,239.55s1.76,79,0,80.71,33.13-28.81,32-75.89-13.32-78.08-13.32-78.08S144.83,140.41,143.07,239.55Z"/><path class="cls-2" d="M233.05,282.85s1.76,79,0,80.72,33.13-28.81,32-75.89-13.32-78.08-13.32-78.08S234.81,183.71,233.05,282.85Z"/><path class="cls-2" d="M264.47,253.46s-13.41,80.12-15.16,81.87S279.52,307.1,278.37,260,268,181.36,268,181.36,266.22,154.32,264.47,253.46Z"/><path class="cls-2" d="M101.52,274.51s-13.41,80.12-15.16,81.88,3.4-20.67,2.25-67.75S105,202.41,105,202.41,103.27,175.37,101.52,274.51Z"/><path class="cls-3" d="M287.89,499.7c2.52,7,5.29,13.95,8,20.88h84.17c-6.22-19.29-13.33-38.53-20.74-57.38-6.24-15.89-14.75-45.07-21.33-63-11.43-31.1-9-65.93-38.23-82.83-9.69-5.6-20.43-7.73-30-11.6l-29,110.14C268.09,432,278,472,287.89,499.7Z"/><path class="cls-3" d="M84.17,520.58c2.74-6.93,5.51-13.85,8-20.88C102.13,472,112,432,139.33,415.93l-29-110.14c-9.59,3.87-20.33,6-30,11.6-29.22,16.9-26.8,51.73-38.23,82.83-6.58,17.91-15.09,47.09-21.33,63C13.33,482.05,6.22,501.29,0,520.58Z"/><path class="cls-4" d="M233.8,271.5c37.45,18.42,34.36,55.44,20.25,100H126.44c-14.11-44.58-15.87-82.2,21.58-100.63C186.35,258.4,203.51,264.14,233.8,271.5Z"/><path class="cls-5" d="M269.45,453.73V305.31A198.22,198.22,0,0,1,247.87,297c-27.1-12.42-23.36-90-24-112.23H149.7c8.07,31.85,3.92,72.1-.92,84.63s-14,21.4-24.29,25.51a65.57,65.57,0,0,0-7.53,3.95V453.73Z"/><path class="cls-6" d="M151.17,248.31c12.84,9.1,26.18,16.19,43.3,14.13,12.5-1.5,23.6-7.59,33.62-15.23-2.2-18.57-2.28-38.33-2.32-51.57,0-4.39,0-8.12-.1-10.95l0-1.75H147.39l.57,2.24C153.27,206.13,153.15,230.66,151.17,248.31Z"/><path class="cls-6" d="M198.29,323.59a8.56,8.56,0,0,1,4.23-6.95c2.92-1.92,6.42-2.32,9.85-2.23,3.82.1,7.6.63,11.42.73a90,90,0,0,0,11.49-.41A92.72,92.72,0,0,0,248,312.56c1-.24.58-1.77-.42-1.53a90.67,90.67,0,0,1-23.78,2.52c-4-.11-8-.7-12-.74a17.88,17.88,0,0,0-10.07,2.45c-2.83,1.86-5,4.83-5,8.33a.8.8,0,0,0,1.59,0Z"/><path class="cls-6" d="M182.7,323.59a9.81,9.81,0,0,0-4-7.62,16.21,16.21,0,0,0-9.52-3.14c-4-.16-8,.49-12,.67A89.89,89.89,0,0,1,131.83,311c-1-.24-1.42,1.29-.42,1.53a92.39,92.39,0,0,0,23,2.61c3.82-.05,7.61-.51,11.43-.71,3.44-.18,7.08,0,10.17,1.66,2.76,1.51,5.1,4.18,5.09,7.47a.8.8,0,0,0,1.59,0Z"/><path class="cls-7" d="M251.46,520.58c1.88-5.85,3.68-11.72,5.62-17.56,4.13-12.41,8.31-24.79,12.37-37.16V328.63c-4.78,9.83-13,19.58-20,27.34-8.52,9.46-18.76,17.6-30.61,22.24-39.51,15.44-82.24-13.72-100.82-47.77-.18-.35-.57-1.25-1.07-2.46v192.6Z"/><path class="cls-4" d="M292.58,520.58c.11-.68.26-1.29.37-2,35.54-41.89,28.79-71.38,20.77-96,2.3-8.3,3.07-17,3.53-25.63q1.61-30,.27-60.08c-.34-7.69-.92-15.7-4.83-22.36-6.52-11.1-18.8-13.83-29.79-18.67-5.15-2.26-9.55-2.94-15.17-3.8-2.06-.31-10.33-.72-11.07-3.38,5.51,19.95.66,45-8.25,72.77-13.62,42.4-24.74,84.12-33.81,125.89-.37,1-.69,2.09-1.06,3.13-3,8.24-7.26,19.06-11.83,30.15Z"/><path class="cls-4" d="M56.63,469.29c2.48,14.21,8.31,33.3,29.73,51.29H192.53c-4.66-10.82-9.63-22.27-14.52-33.41A1279.78,1279.78,0,0,0,140.82,359c-9.78-28.22-15.1-53.63-9-73.88-.81,2.7-9.89,3.11-12.15,3.43-6.17.88-11,1.56-16.65,3.86-12.06,4.91-25.54,7.68-32.69,18.95C66,318.11,65.35,326.24,65,334a580,580,0,0,0,.29,61c.2,3.43.49,6.86.85,10.28C58.86,418.8,51.17,438,56.63,469.29Z"/><path class="cls-8" d="M107.12,137.58c-4.36,1.62-6.81,7.09-7.32,12.23A49.24,49.24,0,0,0,112,186.94a15.84,15.84,0,0,0,5.15,4.16c14.13,6.29,8.87-33.26,7.47-39.39C123.11,144.94,116.06,134.25,107.12,137.58Z"/><path class="cls-9" d="M107.14,152.75a8.31,8.31,0,0,1,.93-2.74,3,3,0,0,1,2.42-1.51c1.88,0,2.93,2,3.43,3.76a50.56,50.56,0,0,1,2,13.87,1.22,1.22,0,0,0-1.63-.21,2.55,2.55,0,0,0-.94,1.47c-1.34,4.39,1.78,9.54,6.42,10.6"/><path class="cls-8" d="M268.67,137.58c4.36,1.62,6.81,7.09,7.32,12.23a49.24,49.24,0,0,1-12.23,37.13,15.84,15.84,0,0,1-5.15,4.16c-14.13,6.29-8.87-33.26-7.47-39.39C252.68,144.94,259.73,134.25,268.67,137.58Z"/><path class="cls-9" d="M268.65,152.75a8.31,8.31,0,0,0-.93-2.74,3,3,0,0,0-2.42-1.51c-1.88,0-2.93,2-3.43,3.76a50.56,50.56,0,0,0-2,13.87,1.22,1.22,0,0,1,1.63-.21,2.6,2.6,0,0,1,.94,1.47c1.34,4.39-1.78,9.54-6.42,10.6"/><path class="cls-10" d="M117.52,126.59a160.71,160.71,0,0,1,5.31-33c4.56-16.57,15-31.88,31.1-40.31,17.8-9.32,39.36-11.09,58.8-7,14.35,3,28.09,10.55,36.52,22.23,9,12.45,9.93,31.22,11.27,45.89A183.27,183.27,0,0,1,255,179.06c-4.66,17.11-12.46,34.11-25,47.33-9.91,10.42-23.25,18.26-38.21,18.62a46.2,46.2,0,0,1-7.06-.36c-16.54-2.1-30.22-12.58-40.08-24.81-14.75-18.29-23.3-41.66-26.24-64.72A156.73,156.73,0,0,1,117.52,126.59Z"/><path class="cls-11" d="M185.52,50.35s9.1,20.15-31.86,46.34c-27.42,17.52-35.85,65-36.29,68.83S78.67,11.63,185.52,50.35Z"/><path class="cls-11" d="M184.19,50.35s-8.34,28.13,31.87,46.34c29.79,13.49,39.14,66.9,39.58,70.71S322.17,22.09,184.19,50.35Z"/><path class="cls-12" d="M190.61,189.54c-3.32-1.09-6.9-2.36-8.75-5.21-1.75-2.69-1.52-6.1-1.22-9.26Q182.32,157,184,139"/><path class="cls-13" d="M151.78,156.64c-8.63-.92-7.17-13.76,1.48-12.85s7.16,13.76-1.48,12.85Z"/><path class="cls-14" d="M134.64,129.3a34.46,34.46,0,0,1,31.06-.46"/><path class="cls-14" d="M211.74,129.3a34.47,34.47,0,0,1,31.06-.46"/><path class="cls-13" d="M224.17,156.64c8.63-.92,7.17-13.76-1.48-12.85s-7.16,13.76,1.48,12.85Z"/><path class="cls-15" d="M172.05,207a37.2,37.2,0,0,0,33-.68"/><path class="cls-11" d="M156.77,54.12c.48,1.88,86,6,86,6l-4.12-13.69s-29.86-14.63-41.19-14.63-35.31,5.31-40.72,7.08S156.77,54.12,156.77,54.12Z"/></g></g></svg>