<svg xmlns="http://www.w3.org/2000/svg" viewBox="0 0 513.62 617.02">
    <defs>
        <style>.cls-1{fill:#c7c9c9;}.cls-2,.cls-5{fill:#ff9973;stroke:#ed714b;}.cls-2,.cls-23,.cls-5{stroke-miterlimit:10;}.cls-2{stroke-width:1.59px;}.cls-3{fill:#424c3b;}.cls-4{fill:#e8e8e8;}.cls-5{stroke-width:1.59px;}.cls-6{fill:#634d3b;}.cls-23,.cls-7{fill:none;}.cls-7{stroke:#7f3d29;stroke-linecap:round;stroke-linejoin:round;stroke-width:1.28px;}.cls-8{fill:#0c5a71;}.cls-9{fill:#37212e;}.cls-10{fill:#fff;}.cls-11{font-size:35.39px;font-family:Simplicity;}.cls-12{letter-spacing:-0.01em;}.cls-13{letter-spacing:0em;}.cls-14{letter-spacing:0em;}.cls-15{letter-spacing:-0.01em;}.cls-16{letter-spacing:-0.05em;}.cls-17{letter-spacing:-0.01em;}.cls-18{letter-spacing:0em;}.cls-19{letter-spacing:0.02em;}.cls-20{letter-spacing:-0.01em;}.cls-21{letter-spacing:0em;}.cls-22{fill:#023749;}.cls-23{stroke:#dfa326;}.cls-24{fill:#dfa326;}</style>
        <filter x="0" y="0" width="1" height="1" id="solid">
                <feFlood flood-color="rgba(255,0,0,0.2)" result="bg" />
                <feMerge>
                    <feMergeNode in="bg"/>
                    <feMergeNode in="SourceGraphic"/>
                </feMerge>
            </filter>
    </defs>
    <g id="Layer_2" data-name="Layer 2">
        <g id="Layer_1-2" data-name="Layer 1">
            <path class="cls-1" d="M122.18,420.29s22.65-25.37,51.44-27.63,45.2-17.42,87.28,21.76S122.18,420.29,122.18,420.29Z"/>
            <path class="cls-2" d="M224.68,395.41c-1.85-22.24-5.17-62.21-5.17-62.21H160l-4.16,61.2a26.38,26.38,0,0,1-15.14,22.11L65,452,87.19,612.77H296.86l17.48-157.11-75.49-39A26.3,26.3,0,0,1,224.68,395.41Z"/>
            <path class="cls-3" d="M318.8,475h0a14.3,14.3,0,0,0-14.1,11.6c-6.26,33-12.67,96.39-11.09,129.56h66c-10.33-46.95-20.95-106.77-26.86-130.33A14.31,14.31,0,0,0,318.8,475Z"/>
            <path class="cls-3" d="M302.74,529.83c5.39-41.11,14-78.63,16.63-81.63s6.52,3.47,9.43,9.82a96,96,0,0,1,5.6,16.17c2.44,9.59,6.65,56.27,12.85,82.1Z"/>
            <path class="cls-3" d="M64.62,475h0a14.29,14.29,0,0,1,14.09,11.6c6.27,33,12.68,96.39,11.1,129.56h-66c10.34-46.95,21-106.77,26.86-130.33A14.31,14.31,0,0,1,64.62,475Z"/>
            <path class="cls-3" d="M83.8,529.83c-5.38-41.11-14-78.63-16.62-81.63s-6.52,3.47-9.43,9.82a95.12,95.12,0,0,0-5.61,16.17c-2.44,9.59-5.52,42.66-11.72,68.49Z"/>
            <path class="cls-3" d="M247.56,409.4s-12,53.29-53.15,53.3c-41.54,0-53.72-54.88-53.72-54.88L65.52,447.38,81.63,617H306.8l15.54-168.95Z"/>
            <polygon class="cls-4" points="139.66 406.16 192.67 457.49 241.98 398.5 278.73 427.89 234.64 441.7 232.5 478.55 194.81 465.15 150.87 478.55 153.72 442.48 98.2 430.18 129.61 412.64 139.66 406.16"/>
            <path class="cls-5" d="M271.41,273.65c4.64,1.81,7.26,7.89,7.8,13.63a56.38,56.38,0,0,1-13,41.34,17,17,0,0,1-5.5,4.64c-15.08,7-9.46-37-8-43.87C254.34,281.84,261.86,269.94,271.41,273.65Z"/>
            <path class="cls-5" d="M271.38,290.55a9.75,9.75,0,0,0-1-3.05,3.26,3.26,0,0,0-2.58-1.69c-2,0-3.13,2.26-3.67,4.19A58.93,58.93,0,0,0,262,305.45a1.25,1.25,0,0,1,1.73-.24,2.89,2.89,0,0,1,1,1.65,9.8,9.8,0,0,1-6.84,11.8"/>
            <path class="cls-5" d="M111.18,273.65c-4.65,1.81-7.27,7.89-7.81,13.63a56.38,56.38,0,0,0,13,41.34,17,17,0,0,0,5.5,4.64c15.08,7,9.46-37,8-43.87C128.24,281.84,120.72,269.94,111.18,273.65Z"/>
            <path class="cls-5" d="M111.2,290.55a9.51,9.51,0,0,1,1-3.05,3.23,3.23,0,0,1,2.58-1.69c2,0,3.13,2.26,3.66,4.19a58.94,58.94,0,0,1,2.13,15.45,1.26,1.26,0,0,0-1.74-.24,2.89,2.89,0,0,0-1,1.65,9.8,9.8,0,0,0,6.84,11.8"/>
            <path class="cls-2" d="M121.54,270.3a178.76,178.76,0,0,1,5.3-34.54c4.5-17.36,13.23-39.35,29-48.23,17.44-9.8,40.06-5.77,59.06-1.55,14,3.12,27.45,11,35.66,23.17,8.75,13,9.62,32.65,10.89,48a205,205,0,0,1-5.58,67.67c-4.6,17.93-12.29,35.75-24.62,49.63-9.72,10.94-22.8,19.18-37.43,19.6a43.08,43.08,0,0,1-6.91-.36c-16.17-2.15-29.52-13.08-39.14-25.86-14.37-19.11-22.67-43.54-25.47-67.67A174.91,174.91,0,0,1,121.54,270.3Z"/>
            <path class="cls-6" d="M272.52,256c0-11-1-38.31-4.07-48.94-5.32-18.36-17.23-30.47-33-41.24-13.78-9.4-28.7-13-44.33-12.72-15.63-.25-30.55,3.32-44.33,12.72-15.79,10.77-27.7,22.88-33,41.24-3.08,10.63-4,37.9-4.07,48.94,0,5.59.27,11.17.51,16.76,0-.08.31,0,.73.18,2.06-.9,4.23-1.29,6.08,0,3,.9,3.71,5.12,4,8.9.48,2.42.31,5.43.52,7.68q.45,5,.91,10,3-16.83,6-33.66c1.81-10.26,1.31-20.8,3.3-31.06,1.15-5.94,2.34-12,5.18-17.31s10.63-21.6,16.57-22.75c8.13-1.56,15.83,3.5,23.45,6.75a43.54,43.54,0,0,0,34.5,0c7.61-3.25,15.32-8.31,23.44-6.75,5.94,1.15,7.72,17.41,10.56,22.75s4,11.37,5.18,17.31c1.76,9.12,1.85,18.65,2.77,27.88,1.31,13.14,4,26.23,6,39.29l2-17c.34-2.82.73-5.77,2.36-8.1a6.71,6.71,0,0,1,5.29-2.89c2.47,0,2.5,1.23,3.18-1.37C273.44,267.8,272.53,260.91,272.52,256Z"/>
            <path class="cls-7" d="M192.69,331.49c-3.24-1.1-6.75-2.4-8.56-5.32-1.71-2.74-1.48-6.23-1.19-9.45l3.3-36.85"/>
            <path class="cls-8" d="M154.71,297.9c-8.44-.93-7-14,1.45-13.12s7,14.05-1.45,13.12Z"/>
            <path class="cls-9" d="M131.14,271.7a29.57,29.57,0,0,1,3.52-1.16c1.2-.36,2.37-.8,3.57-1.17a43.11,43.11,0,0,1,7.15-1.56,40.31,40.31,0,0,1,7.53-.16c.6,0,1.21.1,1.82.17l.36,0,.35.05,1,.16c1.27.22,2.53.51,3.77.85a38.93,38.93,0,0,1,3.95,1.32c.53.21,1,.44,1.7.75l.92.44a2.78,2.78,0,0,0,1.92.25c1.12-.17,1.38-1.57,1-2.41a3.37,3.37,0,0,0-1.84-1.47c-.73-.35-1.47-.67-2.21-1-1.19-.49-2.41-.92-3.64-1.29a42.86,42.86,0,0,0-8.08-1.55,41,41,0,0,0-15.81,1.52,20.91,20.91,0,0,0-4.41,1.72,40.12,40.12,0,0,0-3.71,2.5,1.14,1.14,0,0,0,1.15,2Z"/>
            <path class="cls-8" d="M225.52,297.9c8.43-.93,7-14-1.45-13.12s-7,14.05,1.45,13.12Z"/>
            <path class="cls-9" d="M250.24,269.73c-1.11-.8-2.18-1.61-3.36-2.3a20.07,20.07,0,0,0-3.79-1.61,40.15,40.15,0,0,0-8-1.73,41.89,41.89,0,0,0-15.84,1.17,39,39,0,0,0-4.24,1.41c-.78.32-1.55.65-2.32,1a3.77,3.77,0,0,0-2.11,1.6c-.41.84-.15,2.24,1,2.41a2.68,2.68,0,0,0,1.74-.15l.73-.37.92-.43.37-.16.31-.13c1.16-.48,2.34-.9,3.54-1.27s2.42-.66,3.65-.91c.6-.12,1.2-.23,1.8-.32l.51-.07c.38-.05-.45.05.21,0l1-.11a38.88,38.88,0,0,1,14.82,1.38c1.33.38,2.62.92,4,1.29a31.26,31.26,0,0,1,4,1.3,1.14,1.14,0,0,0,1.15-2Z"/>
            <path class="cls-10" d="M170.2,352.06c12.66,10.57,28.35,10.75,41.09.46"/>
            <text filter="url(#solid)" class="cls-11" transform="translate(0 29.62)">Johh<tspan class="cls-12" x="71.81" y="0">n</tspan>
                <tspan x="90.99" y="0">y </tspan>
                <tspan class="cls-13" x="115.17" y="0">R</tspan>
                <tspan class="cls-14" x="134.35" y="0">e</tspan>
                <tspan class="cls-15" x="151.98" y="0">x</tspan>
                <tspan class="cls-16" x="168.15" y="0">-</tspan>
                <tspan class="cls-17" x="177.25" y="0">T</tspan>
                <tspan x="194.59" y="0">hew</tspan>
            </text>
            <text filter="url(#solid)" class="cls-11" transform="translate(0 29.62)">
                <tspan x="0" y="42.47">Nume</tspan>
                <tspan class="cls-18" x="90.04" y="42.47">r</tspan>
                <tspan x="101.43" y="42.47">a</tspan>
                <tspan class="cls-19" x="118.49" y="42.47">c</tspan>
                <tspan x="134.99" y="42.47">y </tspan>
                <tspan class="cls-20" x="159.16" y="42.47">C</tspan>
                <tspan x="179.3" y="42.47">o</tspan>
                <tspan class="cls-21" x="198.73" y="42.47">n</tspan>
                <tspan class="cls-15" x="218.23" y="42.47">t</tspan>
                <tspan x="229.73" y="42.47">e</tspan>
                <tspan class="cls-21" x="247.46" y="42.47">n</tspan>
                <tspan x="266.97" y="42.47">t Specialist</tspan>
            </text>
            <line class="cls-22" x1="190.11" y1="535.31" x2="205.99" y2="534.03"/>
            <path class="cls-23" d="M382.69,119.61S439,222.91,323.1,260.11"/>
            <polygon class="cls-24" points="324.88 255.13 325.76 255.59 323.45 259.95 327.97 261.94 327.56 262.85 322.07 260.44 324.88 255.13"/>
        </g>
    </g>
</svg>