<svg xmlns="http://www.w3.org/2000/svg" viewBox="0 0 285.91 62.25"><defs><style>.cls-1{font-size:45.31px;fill:#282827;font-family:Montserrat-Bold, Montserrat;font-weight:700;letter-spacing:-0.05em;}.cls-2{letter-spacing:-0.04em;}.cls-3{letter-spacing:-0.04em;}.cls-4{letter-spacing:-0.05em;}.cls-10,.cls-14,.cls-15,.cls-16,.cls-5,.cls-9{fill:none;stroke:#025e6d;}.cls-10,.cls-16,.cls-5,.cls-9{stroke-linecap:round;}.cls-5,.cls-9{stroke-linejoin:round;}.cls-6{fill:#f2f2f2;stroke:#005e6d;}.cls-10,.cls-14,.cls-15,.cls-16,.cls-6{stroke-miterlimit:10;}.cls-10,.cls-14,.cls-6,.cls-9{stroke-width:0.25px;}.cls-7{fill:#025e6d;}.cls-8{fill:#096972;}.cls-11{fill:#51a8b0;}.cls-12{fill:#005e6d;}.cls-13{fill:#ebf1f2;}.cls-15,.cls-16{stroke-width:0.1px;}</style></defs><g id="Layer_2" data-name="Layer 2"><g id="Layer_1-2" data-name="Layer 1"><text class="cls-1" transform="translate(0 38.51)">Sma<tspan class="cls-2" x="97.59" y="0">r</tspan><tspan x="115.53" y="0">t</tspan><tspan class="cls-3" x="132.97" y="0">L</tspan><tspan class="cls-4" x="158.34" y="0">ab</tspan></text><path d="M1.41,46.26h1v11h7v1h-8Z"/><path d="M10.45,46.57a.92.92,0,0,1,1.83,0,.92.92,0,0,1-1.83,0Zm0,2.69h1v9h-1Z"/><path d="M19.46,58.19a3,3,0,0,1-2,.65c-1.74,0-2.09-2.69-2.09-2.69V50.26h-2v-1h2v-2h1v2h3v1h-3v5.82c-.37,1.09.2,1.69,1.23,1.69A2.07,2.07,0,0,0,19,57.29Z"/><path d="M28.57,54.26H20.83a3.43,3.43,0,0,0,3.64,3.22,3.66,3.66,0,0,0,2.84-1.21l.7.81a4.57,4.57,0,0,1-3.57,1.51,4.58,4.58,0,0,1-4.86-4.72,4.46,4.46,0,0,1,4.52-4.7,4.41,4.41,0,0,1,4.49,4.7C28.59,54,28.57,54.12,28.57,54.26Zm-7.74-1h6.56a3.29,3.29,0,0,0-6.56,0Z"/><path d="M34.41,49.42v1.22l.21,0c-1.93,0-3.21,3.41-3.21,3.41v4.23h-1v-9h1v2.05C32,50.07,34.41,49.42,34.41,49.42Z"/><path d="M43.41,53v5.25h-1v-.95a4.62,4.62,0,0,1-3.53,1.53c-2.09,0-3.38-1.09-3.38-2.69,0-1.43,3.58-2.89,3.58-2.89h3.33V53a2.82,2.82,0,0,0-3-2.45,4.74,4.74,0,0,0-3.08,1.1l-.56-.94a5.88,5.88,0,0,1,3.77-1.25C41.91,49.42,43.41,53,43.41,53Zm-1,2.76V54.26h-2.9c-1.8,0-2.38.7-2.38,1.65s.87,1.74,2.35,1.74A2.94,2.94,0,0,0,42.41,55.77Z"/><path d="M44.88,54.12a4.56,4.56,0,0,1,4.77-4.7,4.06,4.06,0,0,1,3.63,1.83l-.94.64a3.13,3.13,0,0,0-2.69-1.38,3.61,3.61,0,0,0,0,7.22,3.13,3.13,0,0,0,2.69-1.35l.94.63a4.08,4.08,0,0,1-3.63,1.83A4.57,4.57,0,0,1,44.88,54.12Z"/><path d="M62.48,49.26,57.85,59.63C57.08,61.44,56.09,62,54.77,62a3.13,3.13,0,0,1-2.25-.85l.58-.93a2.31,2.31,0,0,0,1.69.71c.83,0,1.39-.39,1.92-1.55l.4-.9L53,49.26h1.31l3.48,7.87,3.49-7.87Z"/><path d="M74.41,53v5.25h-1v-.95a5.37,5.37,0,0,1-3.72,1.53c-2.09,0-3.38-1.09-3.38-2.69,0-1.43,3.58-2.89,3.58-2.89h3.52V53a3.15,3.15,0,0,0-3.21-2.45,4.74,4.74,0,0,0-3.08,1.1l-.56-.94a5.88,5.88,0,0,1,3.77-1.25C72.72,49.42,74.41,53,74.41,53Zm-2,2.76V54.26h-2.9c-1.8,0-2.38.7-2.38,1.65s.87,1.74,2.35,1.74A2.94,2.94,0,0,0,72.41,55.77Z"/><path d="M85.41,53v5.22h-2V53c0-1.95-1-3-2.77-3a3,3,0,0,0-3.23,3.35v4.86h-1v-9h2v1.66a3.7,3.7,0,0,1,3.37-1.73C83.93,49.19,85.41,50.46,85.41,53Z"/><path d="M96.41,45.26v13h-2V56.92c-.26,1.25-1.54,1.92-3.07,1.92a4.71,4.71,0,0,1,0-9.42c1.47,0,4.07,1.83,4.07,1.83v-6Zm-1.54,8.86a3.44,3.44,0,1,0-3.43,3.61A3.39,3.39,0,0,0,94.87,54.12Z"/><path d="M112.41,46.26v12h-.49l-8.51-9.51v9.51h-1v-12h1.36l7.64,10.17V46.26Z"/><path d="M124.41,49.26v9h-2V56.62a3.55,3.55,0,0,1-3.21,1.72c-2.29,0-3.79-1.28-3.79-3.86V49.26h2V54.5c0,2,1,3,2.82,3a3,3,0,0,0,3.18-3.36V49.26Z"/><path d="M142.41,53v5.22h-1V53c0-1.95-1-3-2.77-3a3,3,0,0,0-3.23,3.35v4.86h-1V53c0-1.95-1-3-2.78-3a3,3,0,0,0-3.22,3.35v4.86h-1v-9h1V50.9a3.75,3.75,0,0,1,3.38-1.71,3.3,3.3,0,0,1,3.27,1.9,4.05,4.05,0,0,1,3.65-1.9C141,49.19,142.41,50.46,142.41,53Z"/><path d="M152.71,54.26H145a3.42,3.42,0,0,0,3.64,3.22,3.63,3.63,0,0,0,2.83-1.21l.71.81a4.9,4.9,0,0,1-8.43-3.21,4.51,4.51,0,1,1,9,0C152.73,54,152.71,54.12,152.71,54.26Zm-7.74-1h6.56a3.29,3.29,0,0,0-6.56,0Z"/><path d="M158.41,49.42v1.22l.35,0c-1.93,0-3.35,3.41-3.35,3.41v4.23h-1v-9h1v2.05C156.17,50.07,158.41,49.42,158.41,49.42Z"/><path d="M167.41,53v5.25h-1v-.95A4.12,4.12,0,0,1,163,58.84c-2.09,0-3.38-1.09-3.38-2.69,0-1.43,3.57-2.89,3.57-2.89h3.2V53a2.61,2.61,0,0,0-2.88-2.45,4.72,4.72,0,0,0-3.08,1.1l-.56-.94a5.87,5.87,0,0,1,3.76-1.25C166.05,49.42,167.41,53,167.41,53Zm-1,2.76V54.26h-2.9c-1.8,0-2.38.7-2.38,1.65s.87,1.74,2.35,1.74A2.94,2.94,0,0,0,166.41,55.77Z"/><path d="M169,54.12a4.56,4.56,0,0,1,4.77-4.7,4.06,4.06,0,0,1,3.63,1.83l-.94.64a3.13,3.13,0,0,0-2.69-1.38,3.61,3.61,0,0,0,0,7.22,3.13,3.13,0,0,0,2.69-1.35l.94.63a4.08,4.08,0,0,1-3.63,1.83A4.57,4.57,0,0,1,169,54.12Z"/><path d="M186.62,49.26,182,59.63c-.78,1.81-1.76,2.39-3.08,2.39a3.18,3.18,0,0,1-2.26-.85l.59-.93a2.29,2.29,0,0,0,1.69.71c.82,0,1.39-.39,1.91-1.55l.41-.9-4.14-9.24h1.31l3.48,7.87,3.49-7.87Z"/><path d="M191.41,46.26h4.89c3.84,0,6.43,2.47,6.43,6s-2.59,6-6.43,6h-4.89Zm4.62,11c3.26,0,5.35-2.06,5.35-5s-2.09-5-5.35-5h-3.62v10Z"/><path d="M204.6,46.57a.92.92,0,0,1,1.83,0,.92.92,0,0,1-1.83,0Zm.81,2.69h1v9h-1Z"/><path d="M215.41,53v5.25h-1v-.95a3.16,3.16,0,0,1-3.07,1.53c-2.1,0-3.38-1.09-3.38-2.69,0-1.43,3.57-2.89,3.57-2.89h2.88V53c.06-1.58-.84-2.45-2.56-2.45a4.7,4.7,0,0,0-3.08,1.1l-.57-.94A5.92,5.92,0,0,1,212,49.42C214.37,49.42,215.41,53,215.41,53Zm-1,2.76V54.26h-2.9c-1.8,0-2.38.7-2.38,1.65s.87,1.74,2.35,1.74A2.94,2.94,0,0,0,214.41,55.77Z"/><path d="M226.41,49.26v8.36c.43,3.19-1.13,4.63-4.2,4.63a6.48,6.48,0,0,1-4.31-1.42l.63-.95a5.53,5.53,0,0,0,3.65,1.27c2.34,0,3.23-3.37,3.23-3.37V56.6s-1.91,1.8-3.43,1.8a4.49,4.49,0,1,1,0-9,7,7,0,0,1,4.43,1.85v-2Zm-.78,4.63a3.52,3.52,0,1,0-3.52,3.4A3.32,3.32,0,0,0,225.63,53.89Z"/><path d="M237.41,53v5.22h-1V53c0-1.95-1-3-2.77-3a3,3,0,0,0-3.23,3.35v4.86h-1v-9h1v1.66a3.7,3.7,0,0,1,3.37-1.73C235.93,49.19,237.41,50.46,237.41,53Z"/><path d="M239.59,54.12a4.71,4.71,0,1,1,4.72,4.72A4.56,4.56,0,0,1,239.59,54.12Zm8.16,0a3.45,3.45,0,1,0-3.44,3.61A3.39,3.39,0,0,0,247.75,54.12Z"/><path d="M249.4,57.7l.56-1a5.6,5.6,0,0,0,3.29,1c1.76,0,2.48-.6,2.48-1.52,0-2.41-6-.51-6-4.17,0-1.51,1.3-2.64,3.66-2.64a6.38,6.38,0,0,1,3.28.86l-.55,1a4.7,4.7,0,0,0-2.73-.79c-1.67,0-2.41.65-2.41,1.53,0,2.5,6,.61,6,4.17,0,1.6-1.41,2.64-3.82,2.64A6.16,6.16,0,0,1,249.4,57.7Z"/><path d="M263.28,58.19a3,3,0,0,1-1.95.65c-1.75,0-2.92-2.69-2.92-2.69V50.26h-2v-1h2v-2h1v2h3v1h-3v5.82c.46,1.09,1,1.69,2.06,1.69a2,2,0,0,0,1.37-.48Z"/><path d="M264.39,46.57a.92.92,0,0,1,1.83,0,.92.92,0,0,1-1.83,0Zm0,2.69h1v9h-1Z"/><path d="M267.59,54.12a4.56,4.56,0,0,1,4.77-4.7A4.06,4.06,0,0,1,276,51.25l-.94.64a3.13,3.13,0,0,0-2.69-1.38,3.61,3.61,0,0,0,0,7.22,3.13,3.13,0,0,0,2.69-1.35L276,57a4.08,4.08,0,0,1-3.63,1.83A4.57,4.57,0,0,1,267.59,54.12Z"/><path d="M276.26,57.7l.57-1a5.6,5.6,0,0,0,3.29,1c1.76,0,2.48-.6,2.48-1.52,0-2.41-6-.51-6-4.17,0-1.51,1.3-2.64,3.66-2.64a6.32,6.32,0,0,1,3.27.86l-.54,1a4.7,4.7,0,0,0-2.73-.79c-1.67,0-2.41.65-2.41,1.53,0,2.5,6,.61,6,4.17,0,1.6-1.41,2.64-3.82,2.64A6.21,6.21,0,0,1,276.26,57.7Z"/><line class="cls-5" x1="216.12" y1="38.53" x2="235.54" y2="21.77"/><line class="cls-5" x1="252.42" y1="30.6" x2="235.55" y2="21.95"/><line class="cls-5" x1="257.19" y1="30.75" x2="285.41" y2="5.47"/><ellipse class="cls-6" cx="273.41" cy="15.76" rx="6" ry="6.5"/><ellipse class="cls-7" cx="274.41" cy="14.76" rx="1" ry="1.5"/><ellipse class="cls-7" cx="273.62" cy="14.76" rx="0.19" ry="0.5" transform="translate(0.34 34.83) rotate(-7.29)"/><ellipse class="cls-7" cx="274.91" cy="14.76" rx="0.58" ry="0.4" transform="translate(70.07 198.7) rotate(-45)"/><path class="cls-7" d="M272.91,14.18s-.33-1.58,1.07-1.59,1.32.76,1.26,1.65Z"/><polygon class="cls-7" points="274.07 16.26 274.62 16.26 274.34 16.71 274.07 17.17 273.79 16.71 273.52 16.26 274.07 16.26"/><rect class="cls-7" x="274.41" y="17.26" width="0.45" height="1"/><path class="cls-7" d="M274.18,17.66l.88-1.72a5.56,5.56,0,0,1,1.79.93l0,1.39h-5.47V16.92a4.41,4.41,0,0,1,1.91-1Z"/><rect class="cls-7" x="270.41" y="15.26" width="1" height="4"/><rect class="cls-8" x="271.41" y="15.26" width="0.25" height="4"/><rect class="cls-7" x="270.41" y="13.26" width="1" height="1"/><rect class="cls-8" x="271.41" y="13.26" width="0.25" height="1"/><polyline class="cls-8" points="269.36 12.14 271.13 14.27 271.15 13.83"/><line class="cls-9" x1="262.41" y1="30.26" x2="261.41" y2="30.26"/><ellipse class="cls-6" cx="256.91" cy="30.26" rx="6.5" ry="6"/><ellipse class="cls-9" cx="256.91" cy="30.26" rx="5.5" ry="5"/><polyline class="cls-9" points="259.42 29.26 259.42 28.11 258.34 27.6 254.41 27.52 254.41 33.26 259.42 33.26 259.42 32.26"/><line class="cls-9" x1="255.41" y1="28.26" x2="257.41" y2="28.26"/><line class="cls-9" x1="255.41" y1="29.26" x2="257.41" y2="29.26"/><line class="cls-10" x1="257.41" y1="32.26" x2="259.41" y2="32.26"/><path class="cls-7" d="M260.15,28.7s-.1,0,.26.09v2.47h-1V29.6c.46-.05.42-.09.36-.34h-.56c0,.25-.09.29,1.2.34v1.66h-1V30.05c-.48-.05-.52-.09-.57.21h-.56c0-.3-.09-.26.13-.21v.45c-.41-.05-.45-.09-.5-.24h-.56c-.05.15-.1.19.06.24v-.24h0v.68c-.34-.05-.38-.09-.44.32h-.56c-.05-.41-.09-.37,0-.32v-.68l-.18,1a.93.93,0,0,0-.1.22c0,.05.05.09.1-.22h3.18V28.79C260.24,28.74,260.2,28.7,260.15,28.7Zm-3.74,2.56v-1h1v1Zm1,0v-1h1v1Zm1,0v-1h1v1Zm1,0v-2h1v2Z"/><path class="cls-9" d="M258.41,28.11v0Z"/><path class="cls-9" d="M258.23,28.26h0Z"/><line class="cls-9" x1="256.41" y1="24.26" x2="256.41" y2="26.26"/><line class="cls-9" x1="256.41" y1="34.26" x2="256.41" y2="36.26"/><line class="cls-9" x1="252.41" y1="30.26" x2="250.41" y2="30.26"/><circle class="cls-6" cx="235.91" cy="21.76" r="6.5"/><path class="cls-11" d="M238.67,24.5l-4.17,1.22a1.21,1.21,0,0,1-1.49-.8l-1.49-5a1.17,1.17,0,0,1,.81-1.46l4.17-1.21A1.2,1.2,0,0,1,238,18l1.49,5A1.17,1.17,0,0,1,238.67,24.5Z"/><rect class="cls-12" x="234.41" y="16.26" width="4" height="1"/><rect class="cls-12" x="232.41" y="17.26" width="7" height="8" rx="0.83"/><rect class="cls-13" x="233.41" y="18.26" width="6" height="6"/><circle class="cls-14" cx="235.91" cy="16.76" r="0.5"/><circle class="cls-15" cx="234.91" cy="18.76" r="0.5"/><circle class="cls-15" cx="234.91" cy="21.76" r="0.5"/><circle class="cls-15" cx="234.91" cy="23.76" r="0.5"/><line class="cls-16" x1="234.34" y1="21.04" x2="234.9" y2="21.59"/><line class="cls-16" x1="234.9" y1="21.04" x2="234.34" y2="21.59"/><line class="cls-16" x1="234.65" y1="19.49" x2="234.34" y2="19.32"/><line class="cls-16" x1="234.65" y1="19.49" x2="235.31" y2="18.84"/><line class="cls-16" x1="235.41" y1="19.26" x2="237.41" y2="19.26"/><line class="cls-16" x1="235.41" y1="19.26" x2="238.41" y2="19.26"/><line class="cls-16" x1="235.41" y1="21.26" x2="237.41" y2="21.26"/><line class="cls-16" x1="235.41" y1="21.26" x2="238.41" y2="21.26"/><line class="cls-16" x1="235.41" y1="23.26" x2="237.41" y2="23.26"/><line class="cls-16" x1="235.41" y1="23.26" x2="238.41" y2="23.26"/><path class="cls-12" d="M237.64,23.21l3.52-3.57s.16,0,.34.28Z"/><path class="cls-12" d="M241.2,19.56l.38.36s.56-.39.25-.66C241.83,19.26,241.45,19.05,241.2,19.56Z"/></g></g></svg>