<svg xmlns="http://www.w3.org/2000/svg" viewBox="0 0 431.48 634.67">
    <defs>
        <style>.cls-1{isolation:isolate;}.cls-2{fill:#c9c9c9;}.cls-3{font-size:33.86px;font-family:Simplicity;}.cls-4{letter-spacing:-0.03em;}.cls-5{letter-spacing:-0.01em;}.cls-6{letter-spacing:-0.01em;}.cls-7{letter-spacing:-0.01em;}.cls-8{letter-spacing:0em;}.cls-9{letter-spacing:0em;}.cls-10{letter-spacing:-0.01em;}.cls-11{fill:#773525;}.cls-12,.cls-13,.cls-14,.cls-19{fill:#ff9973;}.cls-12,.cls-14,.cls-23{stroke:#ed714b;}.cls-12,.cls-14,.cls-22,.cls-23,.cls-24,.cls-27{stroke-miterlimit:10;}.cls-12{stroke-width:1.59px;}.cls-13{opacity:0.3;mix-blend-mode:multiply;}.cls-14{stroke-width:1.59px;}.cls-15,.cls-22,.cls-23,.cls-24,.cls-27{fill:none;}.cls-15{stroke:#7f3d29;stroke-linejoin:round;stroke-width:1.28px;}.cls-15,.cls-23{stroke-linecap:round;}.cls-16{fill:#39222f;}.cls-17{fill:#37212e;}.cls-18{fill:#fff;}.cls-20{fill:#ba957b;}.cls-21{fill:#d3d0cd;}.cls-22{stroke:#1c1c1c;}.cls-24{stroke:#dfa326;}.cls-25{fill:#dfa326;}.cls-26{fill:#e2e2e2;}.cls-27{stroke:#602b20;}</style>
            <filter x="0" y="0" width="1" height="1" id="solid">
                <feFlood flood-color="rgba(255,0,0,0.2)" result="bg" />
                <feMerge>
                    <feMergeNode in="bg"/>
                    <feMergeNode in="SourceGraphic"/>
                </feMerge>
            </filter>
    </defs>
    <g class="cls-1">
        <g id="Layer_2" data-name="Layer 2">
            <g id="Layer_1-2" data-name="Layer 1">
                <path class="cls-2" d="M111.23,414.36s24.82-27.79,56.36-30.27,49.53-19.09,95.63,23.85S111.23,414.36,111.23,414.36Z"/>
                <text filter="url(#solid)" class="cls-3" transform="translate(111.13 28.34)">
                    <tspan class="cls-4">P</tspan>
                    <tspan x="17.17" y="0">e</tspan>
                    <tspan class="cls-5" x="34.13" y="0">t</tspan>
                    <tspan x="45.13" y="0">er Spen</tspan>
                    <tspan class="cls-6" x="152.06" y="0">c</tspan>
                    <tspan x="167.02" y="0">e</tspan>
                </text>
                <text filter="url(#solid)" class="cls-3" transform="translate(111.13 28.34)">
                    <tspan class="cls-7" x="0" y="40.63">C</tspan>
                    <tspan x="19.26" y="40.63">o</tspan>
                    <tspan class="cls-8" x="37.85" y="40.63">n</tspan>
                    <tspan class="cls-6" x="56.51" y="40.63">t</tspan>
                    <tspan x="67.51" y="40.63">e</tspan>
                    <tspan class="cls-9" x="84.48" y="40.63">n</tspan>
                    <tspan x="103.13" y="40.63">t </tspan>
                    <tspan class="cls-7" x="121.52" y="40.63">C</tspan>
                    <tspan x="140.78" y="40.63">oo</tspan>
                    <tspan class="cls-10" x="177.96" y="40.63">r</tspan>
                    <tspan x="188.69" y="40.63">din</tspan>
                    <tspan class="cls-9" x="234.5" y="40.63">a</tspan>
                    <tspan class="cls-6" x="250.68" y="40.63">t</tspan>
                    <tspan x="261.69" y="40.63">or</tspan>
                </text>
                <path class="cls-11" d="M323.15,479h0a15.66,15.66,0,0,0-15.44,12.71c-6.86,36.16-13.89,105.61-12.15,142h72.27c-11.33-51.44-23-117-29.43-142.79A15.68,15.68,0,0,0,323.15,479Z"/>
                <path class="cls-11" d="M303.85,539.07c5.9-45,15.29-86.15,18.21-89.45s7.14,3.81,10.33,10.77a104.26,104.26,0,0,1,6.14,17.72c2.67,10.5,8.25,56.35,15,84.65Z"/>
                <path class="cls-11" d="M44.66,479h0a15.66,15.66,0,0,1,15.44,12.71C67,527.85,74,597.3,72.28,633.64H0c11.33-51.44,23-117,29.43-142.79A15.68,15.68,0,0,1,44.66,479Z"/>
                <path class="cls-11" d="M64,539.07c-5.9-45-15.29-86.15-18.21-89.45s-7.14,3.81-10.33,10.77a105.13,105.13,0,0,0-6.14,17.72c-2.67,10.5-5.24,42.58-12,70.88Z"/>
                <path class="cls-12" d="M223.18,386.76c-2-24.37-5.66-68.16-5.66-68.16H152.31l-4.56,67a28.91,28.91,0,0,1-16.59,24.23L48.26,448.7,72.54,624.9H302.27l19.15-172.13L238.71,410A28.87,28.87,0,0,1,223.18,386.76Z"/>
                <path class="cls-13" d="M176,391.61c18.76,4.2,37.91-8.46,46.75-24.26l-4.06-48.85a1.21,1.21,0,0,0-1.2-1.11H152.31a1.21,1.21,0,0,0-1.21,1.12l-3.41,50.19C155.23,378.55,163.66,388.84,176,391.61Z"/>
                <path class="cls-11" d="M243.39,407.12s-13.18,58.39-58.24,58.4c-45.51,0-58.86-60.13-58.86-60.13L43.93,448.73,61.59,634.6h246.7l17-185.12Z"/>
                <path class="cls-14" d="M109.25,252.08c-4.44,1.73-7,7.55-7.46,13a53.93,53.93,0,0,0,12.47,39.55,16.35,16.35,0,0,0,5.26,4.44c14.43,6.71,9-35.43,7.63-42C125.58,259.91,118.38,248.53,109.25,252.08Z"/>
                <path class="cls-14" d="M109.28,268.24a9.13,9.13,0,0,1,1-2.91,3.09,3.09,0,0,1,2.47-1.62c1.91,0,3,2.16,3.5,4a56.36,56.36,0,0,1,2,14.78,1.2,1.2,0,0,0-1.66-.23,2.74,2.74,0,0,0-1,1.57,9.37,9.37,0,0,0,6.55,11.29"/>
                <path class="cls-14" d="M262.53,252.08c4.45,1.73,7,7.55,7.47,13a53.9,53.9,0,0,1-12.48,39.55,16.25,16.25,0,0,1-5.26,4.44c-14.42,6.71-9-35.43-7.62-42C246.21,259.91,253.4,248.53,262.53,252.08Z"/>
                <path class="cls-14" d="M262.51,268.24a9.13,9.13,0,0,0-.95-2.91,3.09,3.09,0,0,0-2.47-1.62c-1.92,0-3,2.16-3.5,4a56.36,56.36,0,0,0-2,14.78,1.2,1.2,0,0,1,1.66-.23,2.8,2.8,0,0,1,1,1.57,9.37,9.37,0,0,1-6.55,11.29"/>
                <path class="cls-12" d="M119.17,248.87a172.34,172.34,0,0,1,5.06-33c4.32-16.61,14.11-32,29.22-40.45,16.69-9.38,36.87-11.21,55.05-7.17,13.42,3,26.25,10.48,34.11,22.16,8.37,12.44,9.21,31.24,10.42,45.93A196,196,0,0,1,247.69,301c-4.4,17.15-11.76,34.2-23.55,47.47-9.3,10.47-21.81,18.35-35.81,18.76a41.73,41.73,0,0,1-6.61-.35c-15.47-2.06-28.24-12.51-37.44-24.74-13.75-18.28-21.69-41.65-24.37-64.74A166.9,166.9,0,0,1,119.17,248.87Z"/>
                <path class="cls-15" d="M187.24,307.41c-3.11-1.06-6.46-2.3-8.2-5.09-1.63-2.62-1.41-6-1.14-9q1.57-17.62,3.16-35.25"/>
                <path class="cls-16" d="M150.9,275.27c-8.07-.89-6.7-13.44,1.39-12.54s6.7,13.44-1.39,12.54Z"/>
                <path class="cls-17" d="M128.11,250.37a31.55,31.55,0,0,1,3.4-1.14c1.17-.34,2.3-.76,3.47-1.12s2.34-.68,3.52-.94c.6-.14,1.2-.25,1.8-.36l.8-.13.4-.05.31,0a38.8,38.8,0,0,1,7.31-.18,35,35,0,0,1,6.9,1.18,40.38,40.38,0,0,1,3.85,1.28l.47.19h0l.28.12.93.42.91.45a2.58,2.58,0,0,0,1.83.2,1.67,1.67,0,0,0,1-2.41,3.14,3.14,0,0,0-1.74-1.42c-.7-.33-1.41-.64-2.12-.93a37.24,37.24,0,0,0-3.54-1.26,40,40,0,0,0-7.66-1.47A39.2,39.2,0,0,0,135,244.22a20.69,20.69,0,0,0-4.21,1.65,40.51,40.51,0,0,0-3.52,2.41,1.17,1.17,0,0,0-.47,1.43,1.14,1.14,0,0,0,1.35.66Z"/>
                <path class="cls-16" d="M218.63,275.27c8.08-.89,6.7-13.44-1.38-12.54s-6.7,13.44,1.38,12.54Z"/>
                <path class="cls-17" d="M242.31,248.28c-1.05-.76-2.06-1.54-3.17-2.2a19.08,19.08,0,0,0-3.69-1.58,38.15,38.15,0,0,0-7.63-1.64,40.11,40.11,0,0,0-15.3,1.13,36.12,36.12,0,0,0-4,1.35c-.71.29-1.42.59-2.12.91s-1.71.71-2.11,1.6a1.66,1.66,0,0,0,1,2.41,2.51,2.51,0,0,0,1.51-.06,10.33,10.33,0,0,0,.95-.45l.74-.35.37-.17.3-.13c1.12-.47,2.28-.87,3.44-1.23s2.35-.64,3.55-.88a28.06,28.06,0,0,1,3.32-.49,37.16,37.16,0,0,1,14.18,1.32c1.3.37,2.55.89,3.85,1.25a32.6,32.6,0,0,1,4,1.3,1.14,1.14,0,0,0,1.34-.66,1.16,1.16,0,0,0-.46-1.43Z"/>
                <path class="cls-18" d="M165,327.08c12.11,10.11,27.12,10.28,39.31.44"/>
                <ellipse class="cls-19" cx="151.69" cy="274.33" rx="6.01" ry="3.24"/>
                <ellipse class="cls-19" cx="217.94" cy="274.33" rx="6.01" ry="3.24"/>
                <path class="cls-20" d="M263.6,235.15c0-10.56-1-36.64-3.9-46.82a80.28,80.28,0,0,0-31.58-43.55c-13.19-9-27.46-12.41-42.41-12.17-15-.24-29.22,3.17-42.41,12.17a80.28,80.28,0,0,0-31.58,43.55c-3,10.18-3.88,36.26-3.9,46.82,0,5.35.26,10.69.49,16,0-.08.3,0,.7.17,2-.86,4-1.24,5.82,0,2.86.86,3.54,4.89,3.77,8.51.46,2.31.3,5.2.5,7.35l.87,9.53q2.86-16.11,5.72-32.2c1.74-9.82,1.26-19.9,3.16-29.72,1.1-5.68,2.23-11.45,5-16.56s7.3-9.54,13-10.63c7.77-1.5,15.15-6.41,22.43-3.3a41.68,41.68,0,0,0,33,0c7.28-3.11,14.66,1.8,22.43,3.3,5.68,1.09,10.27,5.52,13,10.63s3.85,10.88,4.95,16.56c1.69,8.73,1.77,17.85,2.65,26.68,1.26,12.57,3.8,25.09,5.75,37.58l1.95-16.27c.32-2.7.69-5.52,2.25-7.75a6.42,6.42,0,0,1,5.06-2.77c2.37,0,2.39,1.18,3-1.3C264.48,246.48,263.61,239.89,263.6,235.15Z"/>
                <path class="cls-20" d="M225.08,164.26S186.75,193,158.64,186.62s-39.6-3.9-39.6-3.9S162.45,143.33,225.08,164.26Z"/>
                <path class="cls-20" d="M208.36,177.2s-1.08,14.47-8.83,16.62,10.54-.92,16.48-8.31,2.68,6.27,0,9,17.42-6.6,16.14-12.41S208.36,177.2,208.36,177.2Z"/>
                <path class="cls-20" d="M155.09,177.19s-10.1,18.35-15.52,17.38,26.6,2.81,41-14.26c0,0,1.23,11.53-6.56,14.3s43.21-10.47,44.18-25.64S155.09,177.19,155.09,177.19Z"/>
                <path class="cls-21" d="M262,203.05l-19.1,13.64,7.77,63.92s-3.48-23.76,15-21.14C265.64,259.47,264.75,214.09,262,203.05Z"/>
                <path class="cls-21" d="M110,197.5l18.85,17.36L120,276.78s3.48-23.77-15-21.15C105,255.63,107.24,208.55,110,197.5Z"/>
                <circle class="cls-22" cx="151.59" cy="269" r="23.96"/>
                <circle class="cls-22" cx="218.15" cy="269" r="23.96"/>
                <path class="cls-22" d="M175.56,269s8.5-10.12,18.62,0"/>
                <line class="cls-23" x1="225.59" y1="270.18" x2="232.21" y2="265.68"/>
                <line class="cls-23" x1="225.59" y1="273.02" x2="232.21" y2="277.57"/>
                <line class="cls-23" x1="142.89" y1="269.64" x2="136.26" y2="265.14"/>
                <line class="cls-23" x1="142.89" y1="272.48" x2="136.26" y2="277.03"/>
                <path class="cls-24" d="M384.75,91.93s38.32,98.57-40.37,134.27"/>
                <polygon class="cls-25" points="345.55 221.03 346.48 221.39 344.7 226 349.42 227.43 349.13 228.38 343.39 226.64 345.55 221.03"/>
                <polygon class="cls-26" points="129.67 399.73 187.75 455.97 241.77 391.33 282.03 423.53 233.73 438.67 231.39 479.05 190.09 464.37 141.95 479.05 145.07 439.52 87.71 426.81 118.66 406.83 129.67 399.73"/>
                <line class="cls-27" x1="61.59" y1="634.6" x2="75.04" y2="534.83"/>
                <line class="cls-27" x1="308.29" y1="634.6" x2="295.27" y2="527.64"/>
                <path class="cls-23" d="M161.24,312.42s-.52,17.24-3.54,22.37"/>
                <path class="cls-23" d="M207.34,312.42s.52,17.24,3.54,22.37"/>
            </g>
        </g>
    </g>
</svg>