<svg xmlns="http://www.w3.org/2000/svg" viewBox="0 0 514.5 642.42">
    <defs>
        <style>.cls-1{font-size:34.29px;font-family:Simplicity;}.cls-2{letter-spacing:-0.01em;}.cls-3{letter-spacing:-0.01em;}.cls-4{letter-spacing:0em;}.cls-5{letter-spacing:0.02em;}.cls-6{letter-spacing:-0.01em;}.cls-7{letter-spacing:0em;}.cls-16,.cls-18,.cls-20,.cls-22,.cls-8{fill:none;}.cls-8{stroke:#dfa326;}.cls-11,.cls-15,.cls-17,.cls-18,.cls-22,.cls-8{stroke-miterlimit:10;}.cls-9{fill:#dfa326;}.cls-10,.cls-23{fill:#bba89d;}.cls-11,.cls-15,.cls-17,.cls-21{fill:#f69674;}.cls-11,.cls-15,.cls-16,.cls-17,.cls-18,.cls-22{stroke:#ec714b;}.cls-11,.cls-17,.cls-22{stroke-width:1.59px;}.cls-11,.cls-13,.cls-14,.cls-23{fill-rule:evenodd;}.cls-12{fill:#ec714b;}.cls-13{fill:#f3f3f3;}.cls-14{fill:#34807f;}.cls-15,.cls-16,.cls-18{stroke-width:1.59px;}.cls-16,.cls-18,.cls-20,.cls-22{stroke-linecap:round;}.cls-16,.cls-20{stroke-linejoin:round;}.cls-19{fill:#4c2110;}.cls-20{stroke:#a98669;}.cls-24{fill:#579f99;}</style>
            <filter x="0" y="0" width="1" height="1" id="solid">
                <feFlood flood-color="rgba(255,0,0,0.2)" result="bg" />
                <feMerge>
                    <feMergeNode in="bg"/>
                    <feMergeNode in="SourceGraphic"/>
                </feMerge>
            </filter>
    </defs>
    <g id="Layer_2" data-name="Layer 2">
        <g id="Layer_1-2" data-name="Layer 1">
            <text filter="url(#solid)" class="cls-1" transform="translate(2.8 28.7)">Sha<tspan class="cls-2" x="52.47" y="0">r</tspan>
                <tspan x="63.34" y="0">elle Spen</tspan>
                <tspan class="cls-3" x="193.78" y="0">c</tspan>
                <tspan x="208.93" y="0">e</tspan>
            </text>
            <text filter="url(#solid)" class="cls-1" transform="translate(2.8 28.7)">
                <tspan x="0" y="41.15">Li</tspan>
                <tspan class="cls-3" x="24.21" y="41.15">t</tspan>
                <tspan x="35.35" y="41.15">e</tspan>
                <tspan class="cls-4" x="52.53" y="41.15">r</tspan>
                <tspan x="63.57" y="41.15">a</tspan>
                <tspan class="cls-5" x="80.1" y="41.15">c</tspan>
                <tspan x="96.08" y="41.15">y </tspan>
                <tspan class="cls-6" x="119.5" y="41.15">C</tspan>
                <tspan x="139.01" y="41.15">o</tspan>
                <tspan class="cls-7" x="157.84" y="41.15">n</tspan>
                <tspan class="cls-3" x="176.74" y="41.15">t</tspan>
                <tspan x="187.88" y="41.15">e</tspan>
                <tspan class="cls-7" x="205.06" y="41.15">n</tspan>
                <tspan x="223.95" y="41.15">t Specialist</tspan>
            </text>
            <path class="cls-8" d="M28.46,112.07s-38.7,99.85,40.77,136"/>
            <polygon class="cls-9" points="64.48 250.25 64.19 249.29 68.91 247.87 67.14 243.26 68.07 242.91 70.23 248.51 64.48 250.25"/>
            <rect class="cls-10" x="85.24" y="164.56" width="189.41" height="189.41" rx="89.03"/>
            <path class="cls-11" d="M254.54,591.93V451.73a185.93,185.93,0,0,1-20.39-7.89c-25.6-11.73-4.58-85-5.18-106H131.59c7.63,30.08,13.52,68.1,8.95,79.94S127.28,438,117.6,441.87a60.55,60.55,0,0,0-7.11,3.73V591.93Z"/>
            <path class="cls-12" d="M142.8,397.89c12.13,8.59,24.74,15.28,40.91,13.34,11.8-1.42,29-7.17,38.44-14.39,3.5-21.61-8.84-36.2-8.87-48.71,0-4.14,0-7.67-.1-10.35l-.05-1.65H134.71l5.06,2.12C144.79,358,140,380.05,142.8,397.89Z"/>
            <path class="cls-13" d="M102.91,442.09S128.28,513.8,259,448.87l24.61,193.55H45.15Z"/>
            <path class="cls-14" d="M215.46,642.42H359.05c-5.88-18.22-12.59-36.4-19.59-54.21-5.9-15-13.93-42.57-20.15-59.49-10.79-29.38-8.51-62.28-36.11-78.25-9.16-5.29-46.71-13.43-55.77-17.08"/>
            <path class="cls-14" d="M137.05,642.42c9.38-26.13-9.76-207-9.76-207-9.06,3.65-42.28,9.72-51.44,15-27.6,16-25.31,48.87-36.11,78.25-6.22,16.92-14.25,44.49-20.15,59.49C12.59,606,5.88,624.2,0,642.42"/>
            <path class="cls-15" d="M89.06,293.28c-4.77,1.54-7.45,6.7-8,11.56-1.43,12.53,3.51,25.48,13.39,35.07a17,17,0,0,0,5.64,3.93c15.47,6,9.71-31.42,8.18-37.21C106.57,300.23,98.85,290.14,89.06,293.28Z"/>
            <path class="cls-16" d="M89.09,307.61a7.08,7.08,0,0,1,1-2.58,3.39,3.39,0,0,1,2.64-1.43c2.06,0,3.22,1.91,3.76,3.55a41.77,41.77,0,0,1,2.19,13.11,1.47,1.47,0,0,0-1.78-.21,2.46,2.46,0,0,0-1,1.4c-1.47,4.14,2,9,7,10"/>
            <path class="cls-15" d="M265.93,293.28c4.77,1.54,7.45,6.7,8,11.56,1.43,12.53-3.51,25.48-13.39,35.07a17.07,17.07,0,0,1-5.64,3.93c-15.47,6-9.71-31.42-8.18-37.21C248.42,300.23,256.13,290.14,265.93,293.28Z"/>
            <path class="cls-16" d="M265.9,307.61a7.08,7.08,0,0,0-1-2.58,3.41,3.41,0,0,0-2.65-1.43c-2.05,0-3.21,1.91-3.76,3.55a42.05,42.05,0,0,0-2.18,13.11,1.47,1.47,0,0,1,1.78-.21,2.46,2.46,0,0,1,1,1.4c1.47,4.14-2,9-7,10"/>
            <path class="cls-17" d="M90.25,281a140.74,140.74,0,0,1,6.45-34.14,68.46,68.46,0,0,1,38.35-41.62c22-9.57,48.68-11.31,72.76-7,17.78,3.19,34.81,11,45.3,23.18,11.16,12.93,12.4,32.38,14.13,47.59A159.81,159.81,0,0,1,260.65,336c-5.69,17.7-15.29,35.28-30.8,48.92-12.22,10.75-28.71,18.82-47.23,19.12a70.75,70.75,0,0,1-8.74-.4c-20.48-2.25-37.46-13.16-49.71-25.88-18.32-19-29-43.25-32.72-67.15A135.39,135.39,0,0,1,90.25,281Z"/>
            <path class="cls-18" d="M180.19,342.36c-3.14-1-6.53-2.22-8.28-4.92-1.65-2.54-1.43-5.76-1.15-8.74q1.59-17.06,3.19-34.09"/>
            <path class="cls-19" d="M143.49,311.28c-8.16-.86-6.77-13,1.4-12.13s6.76,13-1.4,12.13Z"/>
            <path class="cls-20" d="M127.29,285.46a32.59,32.59,0,0,1,29.35-.43"/>
            <path class="cls-20" d="M200.15,285.46a32.61,32.61,0,0,1,29.36-.43"/>
            <path class="cls-19" d="M211.9,311.28c8.16-.86,6.77-13-1.4-12.13s-6.77,13,1.4,12.13Z"/>
            <path class="cls-21" d="M143.44,317.4c-8.69-.87-7.21-13,1.49-12.14s7.21,13-1.49,12.14Z"/>
            <path class="cls-21" d="M212.35,317.4c8.69-.87,7.22-13-1.49-12.14s-7.21,13,1.49,12.14Z"/>
            <path class="cls-22" d="M162.64,358.85a35.18,35.18,0,0,0,31.2-.64"/>
            <path class="cls-23" d="M163.16,199.91s29.66,61.83,74.31,12.87c.86-.94,1.73-1.93,2.6-2.95C286.16,155.51,186.33,191,163.16,199.91Z"/>
            <path class="cls-23" d="M144.74,205.1s2.65,16.86-13.12,22.48-42.78,7.73-35.62-4.5S144.74,205.1,144.74,205.1Z"/>
            <path class="cls-23" d="M152.17,215.38s2.65,16.87-13.13,22.49-42.78,7.72-35.61-4.5S152.17,215.38,152.17,215.38Z"/>
            <path class="cls-23" d="M187,204.56s2.64,16.86-13.13,22.48-42.78,7.73-35.61-4.5S187,204.56,187,204.56Z"/>
            <path class="cls-23" d="M183.7,188.38s-7.45,23.07-23.22,28.69-47.32,1.52-40.16-10.71S183.7,188.38,183.7,188.38Z"/>
            <path class="cls-23" d="M110.28,223.51s14.66,8.76,8.88,24.47S95.49,286.4,92.91,272.47C85.78,233.84,110.28,223.51,110.28,223.51Z"/>
            <ellipse class="cls-10" cx="87.91" cy="248.05" rx="15" ry="18.96"/>
            <ellipse class="cls-10" cx="85.24" cy="276.57" rx="15" ry="18.96"/>
            <ellipse class="cls-10" cx="94.07" cy="218.04" rx="15" ry="18.96"/>
            <ellipse class="cls-10" cx="106.37" cy="201.86" rx="15" ry="18.96"/>
            <ellipse class="cls-10" cx="262.43" cy="258.88" rx="15" ry="18.96"/>
            <ellipse class="cls-10" cx="265.11" cy="287.4" rx="15" ry="18.96"/>
            <ellipse class="cls-10" cx="256.28" cy="228.86" rx="15" ry="18.96"/>
            <ellipse class="cls-10" cx="243.97" cy="212.68" rx="15" ry="18.96"/>
            <ellipse class="cls-10" cx="235.43" cy="219.54" rx="15" ry="18.96"/>
            <ellipse class="cls-10" cx="127.29" cy="188.38" rx="15" ry="18.96" transform="translate(-82.04 277.11) rotate(-78.92)"/>
            <ellipse class="cls-10" cx="244.41" cy="186.69" rx="15" ry="18.96" transform="translate(14.25 390.68) rotate(-78.92)"/>
            <ellipse class="cls-10" cx="150.35" cy="175.91" rx="15" ry="18.96" transform="translate(-51.17 289.67) rotate(-78.92)"/>
            <ellipse class="cls-10" cx="170.56" cy="172.23" rx="15" ry="18.96" transform="translate(-31.23 306.53) rotate(-78.92)"/>
            <ellipse class="cls-10" cx="190.1" cy="172.23" rx="15" ry="18.96" transform="translate(-15.44 325.71) rotate(-78.92)"/>
            <ellipse class="cls-10" cx="207.62" cy="172.23" rx="15" ry="18.96" transform="translate(-1.29 342.9) rotate(-78.92)"/>
            <ellipse class="cls-10" cx="226.45" cy="180.29" rx="15" ry="18.96" transform="translate(6.01 367.89) rotate(-78.92)"/>
            <ellipse class="cls-10" cx="256.28" cy="203.96" rx="15" ry="18.96" transform="translate(6.88 416.28) rotate(-78.92)"/>
            <ellipse class="cls-10" cx="259.3" cy="223.51" rx="15" ry="18.96" transform="translate(-9.86 435.04) rotate(-78.92)"/>
            <ellipse class="cls-10" cx="258.99" cy="236.7" rx="15" ry="18.96" transform="translate(-23.06 445.39) rotate(-78.92)"/>
            <circle class="cls-24" cx="237.27" cy="542.25" r="8.96"/>
            <circle class="cls-24" cx="237.27" cy="578.11" r="8.96"/>
            <circle class="cls-24" cx="237.27" cy="613.54" r="8.96"/>
        </g>
    </g>
</svg>